<svg id="svg" version="1.1" xmlns="http://www.w3.org/2000/svg" xmlns:xlink="http://www.w3.org/1999/xlink" width="400" height="400.71047957371223" viewBox="0, 0, 400,400.71047957371223"><g id="svgg"><path id="path0" d="M102.800 142.831 C 102.800 143.034,102.091 143.200,101.224 143.200 C 100.357 143.200,99.536 143.380,99.400 143.600 C 99.264 143.820,98.533 144.000,97.776 144.000 C 97.019 144.000,96.400 144.201,96.400 144.447 C 96.400 144.696,96.047 144.801,95.599 144.684 C 95.159 144.569,94.884 144.611,94.987 144.779 C 95.199 145.122,93.470 146.000,92.581 146.000 C 92.262 146.000,92.000 146.180,92.000 146.400 C 92.000 146.620,91.818 146.800,91.597 146.800 C 91.223 146.800,89.674 148.025,87.929 149.700 C 87.528 150.085,87.193 150.265,87.184 150.100 C 87.175 149.935,86.897 150.300,86.565 150.912 C 86.233 151.523,85.811 151.931,85.627 151.817 C 85.443 151.703,85.076 152.135,84.810 152.776 C 84.544 153.417,83.983 154.253,83.563 154.633 C 83.144 155.013,82.800 155.566,82.800 155.862 C 82.800 156.158,82.641 156.400,82.447 156.400 C 82.103 156.400,81.470 157.896,81.557 158.500 C 81.581 158.665,81.420 158.800,81.200 158.800 C 80.980 158.800,80.800 159.149,80.800 159.576 C 80.800 160.003,80.620 160.464,80.400 160.600 C 80.180 160.736,80.000 161.276,80.000 161.800 C 80.000 162.324,79.815 162.867,79.589 163.007 C 79.364 163.146,79.205 163.472,79.237 163.730 C 79.392 164.986,79.165 167.226,78.900 167.062 C 78.536 166.836,78.620 172.986,78.989 173.583 C 79.133 173.815,79.260 174.724,79.272 175.602 C 79.284 176.481,79.453 177.200,79.647 177.200 C 79.841 177.200,80.000 177.549,80.000 177.976 C 80.000 178.403,80.180 178.864,80.400 179.000 C 80.620 179.136,80.800 179.687,80.800 180.224 C 80.800 180.761,80.980 181.200,81.200 181.200 C 81.420 181.200,81.567 181.335,81.526 181.500 C 81.368 182.135,82.786 184.671,84.154 186.200 C 84.941 187.080,85.588 187.935,85.592 188.100 C 85.603 188.508,86.666 189.530,88.807 191.190 C 89.793 191.954,90.728 192.764,90.885 192.990 C 91.042 193.215,91.312 193.409,91.485 193.419 C 92.355 193.472,95.175 195.096,94.908 195.390 C 94.739 195.576,94.806 195.611,95.057 195.467 C 95.309 195.323,96.254 195.466,97.157 195.785 C 98.061 196.104,98.800 196.260,98.800 196.133 C 98.800 196.006,99.088 196.141,99.440 196.433 C 99.792 196.725,100.763 196.915,101.599 196.854 C 102.435 196.794,103.218 196.906,103.340 197.103 C 103.631 197.575,107.867 197.740,108.144 197.290 C 108.262 197.099,109.360 196.916,110.582 196.884 C 111.805 196.852,113.168 196.631,113.611 196.394 C 114.054 196.157,114.593 196.072,114.808 196.205 C 115.024 196.338,115.200 196.257,115.200 196.024 C 115.200 195.791,115.456 195.600,115.768 195.600 C 116.748 195.600,121.862 192.819,123.156 191.582 C 123.836 190.932,124.568 190.400,124.782 190.400 C 124.997 190.400,125.386 190.000,125.648 189.510 C 125.910 189.021,126.831 187.866,127.696 186.944 C 129.401 185.125,131.319 181.852,130.917 181.450 C 130.779 181.312,130.877 181.200,131.133 181.200 C 131.390 181.200,131.600 180.780,131.600 180.267 C 131.600 179.753,131.723 179.210,131.874 179.059 C 132.345 178.588,133.188 175.849,133.194 174.767 C 133.197 174.198,133.330 173.603,133.490 173.444 C 133.883 173.051,133.904 166.812,133.511 167.055 C 133.256 167.212,132.982 164.184,133.153 163.100 C 133.179 162.935,133.020 162.800,132.800 162.800 C 132.580 162.800,132.400 162.552,132.400 162.249 C 132.400 161.946,132.098 161.001,131.728 160.149 C 131.359 159.297,131.103 158.265,131.161 157.856 C 131.224 157.408,131.093 157.219,130.833 157.380 C 130.595 157.527,130.400 157.394,130.400 157.086 C 130.400 156.777,130.047 156.205,129.616 155.814 C 129.185 155.424,128.869 154.991,128.913 154.852 C 128.958 154.714,128.636 154.097,128.198 153.481 C 127.055 151.878,125.888 150.502,126.231 151.162 C 126.424 151.531,126.366 151.626,126.062 151.438 C 125.808 151.281,125.600 150.883,125.600 150.553 C 125.600 150.223,125.420 150.064,125.200 150.200 C 124.980 150.336,124.800 150.137,124.800 149.757 C 124.800 149.377,124.689 149.178,124.553 149.314 C 124.417 149.450,123.652 148.941,122.853 148.184 C 122.054 147.427,121.175 146.805,120.900 146.803 C 120.625 146.802,120.400 146.620,120.400 146.400 C 120.400 146.180,120.040 146.000,119.600 146.000 C 119.160 146.000,118.800 145.820,118.800 145.600 C 118.800 145.380,118.530 145.200,118.200 145.200 C 117.870 145.200,117.600 145.050,117.600 144.867 C 117.600 144.683,117.375 144.513,117.100 144.488 C 115.255 144.321,113.200 143.846,113.200 143.586 C 113.200 143.213,110.107 142.796,105.900 142.604 C 104.170 142.524,102.800 142.625,102.800 142.831 M144.134 213.027 C 144.002 213.372,144.098 213.858,144.347 214.107 C 144.684 214.444,144.800 214.284,144.800 213.480 C 144.800 212.277,144.501 212.073,144.134 213.027 " stroke="none" fill="#2c9cc4" fill-rule="evenodd"></path><path id="path1" d="M216.562 15.262 C 216.385 15.548,216.452 15.615,216.738 15.438 C 216.992 15.281,217.200 15.343,217.200 15.576 C 217.200 16.119,212.814 16.138,211.403 15.601 C 210.706 15.336,210.437 15.336,210.601 15.601 C 210.952 16.169,210.258 16.096,209.647 15.500 C 209.233 15.097,209.159 15.153,209.267 15.791 C 209.409 16.638,208.425 16.943,207.906 16.213 C 207.717 15.947,207.610 15.978,207.606 16.300 C 207.603 16.575,207.139 16.800,206.576 16.800 C 206.013 16.800,205.642 16.656,205.750 16.481 C 205.858 16.305,205.803 15.928,205.627 15.643 C 205.398 15.274,205.234 15.410,205.057 16.115 C 204.769 17.261,202.687 17.446,201.943 16.392 C 201.590 15.893,201.558 15.906,201.738 16.471 C 202.067 17.500,200.968 18.234,200.123 17.549 C 199.602 17.126,199.519 17.120,199.763 17.526 C 200.009 17.935,199.783 17.996,198.739 17.802 C 197.598 17.589,197.341 17.689,197.000 18.476 C 196.779 18.985,196.176 19.460,195.656 19.534 C 195.054 19.619,194.809 19.510,194.979 19.234 C 195.127 18.995,195.057 18.800,194.824 18.800 C 194.591 18.800,194.400 19.051,194.400 19.357 C 194.400 19.664,194.130 20.018,193.800 20.145 C 193.442 20.282,193.200 20.148,193.200 19.811 C 193.200 19.501,192.992 19.119,192.738 18.962 C 192.452 18.785,192.385 18.852,192.562 19.138 C 192.729 19.409,192.599 19.600,192.247 19.600 C 191.917 19.600,191.518 19.808,191.361 20.063 C 191.165 20.380,191.346 20.455,191.937 20.300 C 192.412 20.176,192.800 20.238,192.800 20.437 C 192.800 20.637,192.440 20.800,192.000 20.800 C 191.560 20.800,191.200 21.008,191.200 21.262 C 191.200 21.519,190.835 21.394,190.376 20.978 C 189.729 20.393,189.482 20.344,189.231 20.750 C 189.055 21.035,188.751 21.282,188.555 21.298 C 187.015 21.425,185.968 22.486,186.847 23.029 C 187.089 23.179,186.903 23.533,186.396 23.888 C 185.703 24.373,185.441 24.393,185.066 23.987 C 184.702 23.593,184.746 23.533,185.267 23.716 C 185.899 23.937,186.584 23.117,186.139 22.672 C 185.640 22.173,184.452 23.751,184.816 24.429 C 185.085 24.933,185.013 25.186,184.548 25.365 C 184.099 25.537,183.978 25.435,184.138 25.017 C 184.404 24.323,183.774 23.795,183.400 24.400 C 183.260 24.627,182.977 24.709,182.772 24.583 C 182.568 24.456,182.400 24.528,182.400 24.743 C 182.400 24.958,182.625 25.227,182.900 25.342 C 183.252 25.488,183.163 25.737,182.600 26.182 C 182.160 26.530,181.483 27.082,181.095 27.408 C 180.708 27.733,180.232 28.000,180.038 28.000 C 179.844 28.000,179.582 28.270,179.455 28.600 C 179.193 29.284,178.400 29.416,178.400 28.776 C 178.400 28.543,178.580 28.464,178.800 28.600 C 179.021 28.736,179.200 28.450,179.200 27.962 C 179.200 27.129,179.157 27.115,178.468 27.739 C 178.065 28.103,177.570 28.269,177.368 28.108 C 177.165 27.946,177.225 28.071,177.500 28.387 C 178.288 29.290,178.155 30.212,177.352 29.410 C 176.996 29.053,176.591 28.885,176.452 29.036 C 176.314 29.186,176.425 29.390,176.700 29.488 C 176.975 29.586,177.197 29.967,177.194 30.333 C 177.190 30.776,177.088 30.843,176.891 30.534 C 176.674 30.192,176.383 30.233,175.797 30.688 C 175.153 31.188,175.135 31.261,175.700 31.066 C 176.085 30.934,176.400 30.999,176.400 31.213 C 176.400 31.426,176.130 31.600,175.800 31.600 C 175.470 31.600,175.200 31.858,175.200 32.174 C 175.200 32.574,174.884 32.690,174.150 32.557 C 173.207 32.386,173.120 32.470,173.295 33.383 C 173.480 34.353,173.236 34.573,172.130 34.437 C 171.872 34.405,171.529 34.591,171.368 34.851 C 171.196 35.131,171.248 35.218,171.496 35.064 C 171.727 34.921,172.019 35.074,172.146 35.402 C 172.272 35.731,172.201 36.000,171.987 36.000 C 171.774 36.000,171.600 36.373,171.600 36.829 C 171.600 37.304,170.755 38.457,169.620 39.529 C 168.531 40.558,167.165 42.358,166.584 43.529 C 165.908 44.894,165.337 45.585,164.995 45.453 C 164.464 45.250,162.953 47.086,163.336 47.469 C 163.445 47.579,163.736 47.293,163.982 46.834 C 164.615 45.650,165.220 45.795,164.662 46.997 C 164.408 47.545,163.975 47.995,163.700 47.997 C 163.425 47.999,163.245 48.225,163.300 48.500 C 163.355 48.775,163.055 49.001,162.633 49.002 C 162.211 49.003,161.784 49.247,161.685 49.544 C 161.553 49.942,161.744 50.008,162.413 49.796 C 163.159 49.559,163.275 49.629,163.061 50.187 C 162.917 50.560,162.800 50.941,162.800 51.033 C 162.800 51.125,162.609 51.200,162.376 51.200 C 162.143 51.200,162.081 50.992,162.238 50.738 C 162.413 50.455,162.348 50.385,162.070 50.557 C 161.733 50.765,161.737 51.030,162.084 51.586 C 162.682 52.544,161.798 53.862,161.001 53.201 C 160.634 52.896,160.527 53.022,160.580 53.696 C 160.619 54.193,160.478 54.960,160.267 55.400 C 159.885 56.197,159.887 56.197,160.842 55.411 C 161.369 54.976,161.575 54.877,161.300 55.191 C 161.025 55.504,160.800 56.084,160.800 56.480 C 160.800 56.876,160.609 57.200,160.376 57.200 C 160.143 57.200,160.064 57.020,160.200 56.800 C 160.336 56.580,160.257 56.400,160.024 56.400 C 159.487 56.400,159.471 57.073,160.000 57.400 C 160.220 57.536,160.397 57.862,160.394 58.124 C 160.390 58.437,160.268 58.411,160.039 58.049 C 159.847 57.746,159.517 57.604,159.306 57.735 C 158.869 58.004,158.877 59.564,159.318 60.271 C 159.495 60.555,159.306 60.839,158.843 60.986 C 158.186 61.195,158.039 61.818,158.415 62.800 C 158.458 62.910,158.463 63.360,158.428 63.800 C 158.377 64.441,158.442 64.485,158.753 64.023 C 158.967 63.706,159.079 62.941,159.000 62.323 C 158.922 61.705,159.025 61.200,159.229 61.200 C 159.945 61.200,159.590 63.504,158.700 64.636 C 157.732 65.866,157.346 68.583,158.185 68.261 C 158.450 68.159,158.667 68.319,158.667 68.616 C 158.667 68.913,158.472 69.121,158.233 69.078 C 157.995 69.035,157.741 69.514,157.669 70.143 C 157.584 70.892,157.689 71.192,157.976 71.015 C 158.216 70.866,158.317 70.590,158.200 70.400 C 158.083 70.210,158.147 69.957,158.342 69.836 C 158.537 69.715,158.723 70.795,158.754 72.235 C 158.791 73.942,158.667 74.765,158.399 74.599 C 158.172 74.459,158.083 74.190,158.200 74.000 C 158.317 73.810,158.259 73.560,158.071 73.444 C 157.882 73.327,157.745 74.080,157.764 75.116 C 157.789 76.395,157.960 76.968,158.300 76.900 C 158.575 76.845,158.800 77.089,158.800 77.443 C 158.800 77.850,158.580 78.001,158.200 77.855 C 157.797 77.701,157.600 77.873,157.600 78.380 C 157.600 79.426,158.025 80.432,158.375 80.215 C 158.536 80.116,158.667 80.289,158.667 80.600 C 158.667 80.911,158.517 81.072,158.333 80.959 C 158.150 80.845,158.000 81.033,158.000 81.376 C 158.000 81.719,158.191 82.000,158.424 82.000 C 158.657 82.000,158.736 82.180,158.600 82.400 C 158.464 82.620,158.528 82.800,158.743 82.800 C 158.958 82.800,159.224 82.575,159.335 82.300 C 159.461 81.988,159.549 82.052,159.568 82.467 C 159.586 82.834,159.709 83.419,159.843 83.767 C 159.976 84.115,159.886 84.400,159.643 84.400 C 159.399 84.400,159.200 84.130,159.200 83.800 C 159.200 83.470,159.001 83.200,158.757 83.200 C 158.514 83.200,158.424 83.485,158.557 83.833 C 158.691 84.181,158.800 84.541,158.800 84.633 C 158.800 84.725,159.081 84.800,159.424 84.800 C 159.767 84.800,159.934 84.983,159.796 85.207 C 159.658 85.430,159.397 85.522,159.218 85.411 C 158.803 85.154,158.892 86.520,159.311 86.830 C 159.481 86.957,159.661 87.631,159.711 88.329 C 159.760 89.027,159.915 89.599,160.055 89.599 C 160.195 89.600,160.435 90.440,160.589 91.468 C 160.743 92.495,160.989 93.170,161.135 92.968 C 161.500 92.461,162.400 92.318,162.400 92.767 C 162.400 92.968,162.206 93.198,161.970 93.277 C 161.391 93.470,161.941 95.600,162.540 95.487 C 162.793 95.439,163.132 95.220,163.294 95.000 C 163.460 94.774,163.590 94.905,163.594 95.300 C 163.597 95.685,163.330 96.000,163.000 96.000 C 162.172 96.000,162.242 96.265,163.404 97.517 C 163.956 98.113,164.324 98.819,164.222 99.087 C 164.119 99.355,164.210 99.683,164.424 99.815 C 164.638 99.947,164.692 100.251,164.545 100.489 C 164.385 100.749,164.463 100.809,164.738 100.638 C 165.036 100.454,165.202 100.681,165.206 101.276 C 165.211 102.019,165.288 102.083,165.600 101.600 C 165.945 101.067,165.989 101.067,166.000 101.600 C 166.010 102.068,166.084 102.086,166.341 101.681 C 166.607 101.263,166.763 101.274,167.149 101.739 C 167.535 102.204,167.498 102.305,166.957 102.258 C 166.588 102.226,166.215 102.401,166.127 102.648 C 166.026 102.932,166.339 103.024,166.984 102.901 C 167.624 102.779,168.000 102.888,168.000 103.196 C 168.000 103.467,167.732 103.583,167.400 103.455 C 166.472 103.099,166.674 104.286,167.700 105.219 C 168.195 105.669,168.914 106.330,169.298 106.687 C 169.682 107.044,170.117 107.216,170.265 107.068 C 170.413 106.921,170.323 106.800,170.067 106.800 C 169.810 106.800,169.600 106.530,169.600 106.200 C 169.600 105.870,169.390 105.600,169.133 105.600 C 168.877 105.600,168.789 105.478,168.938 105.329 C 169.464 104.803,170.833 106.777,170.715 107.893 C 170.620 108.801,170.763 108.996,171.559 109.042 C 172.123 109.074,173.145 109.776,174.043 110.748 C 175.409 112.227,175.546 112.554,174.767 112.470 C 174.347 112.424,174.510 113.793,174.961 114.094 C 175.588 114.514,176.000 114.467,176.000 113.976 C 176.000 113.743,175.822 113.663,175.605 113.797 C 175.379 113.937,175.310 113.778,175.445 113.428 C 175.683 112.807,176.154 112.937,177.600 114.024 C 178.114 114.411,178.101 114.444,177.513 114.255 C 176.516 113.936,176.234 114.691,177.046 115.503 C 177.429 115.886,177.846 116.200,177.971 116.200 C 178.097 116.200,178.151 116.348,178.090 116.530 C 178.030 116.711,178.151 116.754,178.360 116.625 C 178.569 116.496,178.822 116.707,178.923 117.095 C 179.065 117.639,179.118 117.658,179.154 117.175 C 179.179 116.832,178.810 116.132,178.332 115.620 C 177.855 115.107,177.634 114.758,177.842 114.844 C 178.664 115.184,181.970 117.821,181.984 118.149 C 181.993 118.341,181.730 118.274,181.400 118.000 C 181.027 117.691,180.800 117.662,180.800 117.924 C 180.800 118.435,182.243 118.944,182.769 118.619 C 182.976 118.492,183.270 118.590,183.424 118.838 C 183.577 119.086,183.454 119.447,183.151 119.639 C 182.848 119.831,182.789 119.991,183.020 119.994 C 183.251 119.997,183.669 119.775,183.949 119.500 C 184.356 119.099,184.432 119.119,184.329 119.600 C 184.258 119.930,184.046 120.313,183.857 120.450 C 183.669 120.588,183.714 120.823,183.957 120.974 C 184.201 121.124,184.400 121.046,184.400 120.800 C 184.400 120.554,184.578 120.463,184.795 120.597 C 185.027 120.740,185.096 120.542,184.963 120.121 C 184.757 119.472,184.788 119.464,185.267 120.039 C 185.560 120.390,186.116 120.631,186.502 120.574 C 186.888 120.517,187.102 120.634,186.978 120.835 C 186.854 121.036,187.078 121.203,187.476 121.206 C 188.088 121.211,188.108 121.271,187.600 121.593 C 187.218 121.836,186.952 121.834,186.867 121.587 C 186.793 121.374,186.456 121.200,186.118 121.200 C 185.616 121.200,185.594 121.311,186.000 121.800 C 186.274 122.130,186.757 122.400,187.073 122.400 C 187.389 122.400,187.560 122.541,187.453 122.714 C 187.346 122.887,187.585 123.029,187.984 123.029 C 188.410 123.029,188.628 122.817,188.512 122.514 C 188.279 121.907,188.759 121.857,189.600 122.400 C 190.000 122.658,190.033 122.790,189.700 122.794 C 189.425 122.797,189.200 123.076,189.200 123.414 C 189.200 123.897,189.365 123.940,189.974 123.614 C 191.350 122.877,192.114 123.094,191.909 124.163 C 191.769 124.894,191.869 125.072,192.320 124.898 C 192.650 124.772,193.156 124.999,193.454 125.406 C 193.750 125.810,194.105 126.028,194.243 125.890 C 194.535 125.598,193.659 124.636,192.793 124.296 C 192.285 124.097,192.289 124.059,192.820 124.032 C 193.161 124.014,193.632 124.192,193.868 124.428 C 194.103 124.663,194.634 124.905,195.048 124.966 C 195.461 125.027,195.737 125.239,195.660 125.438 C 195.583 125.637,195.328 125.745,195.092 125.677 C 194.853 125.609,194.892 125.829,195.181 126.177 C 195.788 126.908,196.040 126.973,195.900 126.363 C 195.708 125.522,197.194 124.929,197.723 125.635 C 197.986 125.984,198.425 126.194,198.700 126.102 C 199.028 125.991,199.120 126.185,198.968 126.667 C 198.750 127.353,198.771 127.356,199.301 126.714 C 199.902 125.986,200.800 126.430,200.800 127.455 C 200.800 127.727,201.148 127.924,201.572 127.892 C 201.997 127.860,202.255 127.688,202.145 127.510 C 202.035 127.333,201.777 127.291,201.572 127.417 C 201.368 127.544,201.200 127.457,201.200 127.224 C 201.200 126.698,202.902 126.663,203.420 127.178 C 203.629 127.385,204.655 127.599,205.700 127.652 C 206.745 127.706,207.600 127.871,207.600 128.019 C 207.600 128.168,208.047 128.204,208.593 128.099 C 209.140 127.995,209.905 128.045,210.293 128.211 C 210.682 128.376,211.685 128.501,212.521 128.489 C 213.695 128.471,213.948 128.581,213.628 128.966 C 213.329 129.327,213.372 129.467,213.784 129.467 C 214.098 129.467,214.321 129.296,214.278 129.086 C 214.187 128.645,214.408 128.599,218.379 128.228 C 220.018 128.075,221.489 127.869,221.649 127.770 C 221.809 127.671,222.022 127.907,222.123 128.295 C 222.281 128.899,222.314 128.906,222.354 128.340 C 222.387 127.864,222.783 127.680,223.773 127.680 C 224.529 127.680,225.339 127.561,225.573 127.416 C 225.808 127.271,226.000 127.313,226.000 127.510 C 226.000 127.820,226.886 127.851,228.200 127.586 C 228.420 127.542,228.060 127.368,227.400 127.200 C 226.206 126.896,226.207 126.894,227.700 126.847 C 228.525 126.821,229.315 126.815,229.455 126.834 C 229.596 126.853,229.877 126.628,230.081 126.334 C 230.335 125.969,230.372 126.084,230.199 126.700 C 230.050 127.229,230.122 127.600,230.373 127.600 C 230.608 127.600,230.800 127.409,230.800 127.176 C 230.800 126.943,231.025 126.888,231.300 127.053 C 231.613 127.241,231.580 127.063,231.213 126.577 C 230.890 126.150,230.783 125.932,230.974 126.094 C 231.165 126.255,231.555 126.075,231.841 125.694 C 232.311 125.066,232.339 125.086,232.133 125.900 C 231.959 126.594,232.078 126.799,232.653 126.794 C 233.223 126.789,233.272 126.706,232.859 126.445 C 232.434 126.176,232.509 125.969,233.213 125.476 C 233.990 124.931,234.182 124.925,234.682 125.425 C 235.441 126.184,236.036 126.159,235.737 125.380 C 235.544 124.877,235.716 124.807,236.649 125.012 C 237.451 125.188,237.632 125.147,237.247 124.876 C 236.809 124.568,236.892 124.424,237.647 124.185 C 238.556 123.896,238.563 123.867,237.800 123.569 C 237.247 123.353,237.191 123.248,237.620 123.228 C 237.961 123.213,238.482 123.425,238.779 123.700 C 239.216 124.105,239.277 124.084,239.106 123.589 C 238.948 123.134,239.162 122.992,239.947 123.035 C 241.089 123.098,242.004 122.569,241.994 121.851 C 241.989 121.521,241.909 121.519,241.694 121.846 C 241.368 122.341,239.600 122.992,239.600 122.617 C 239.600 122.387,241.482 121.501,242.115 121.434 C 242.288 121.415,242.596 121.131,242.799 120.802 C 243.116 120.289,243.259 120.318,243.805 121.002 C 244.425 121.779,244.435 121.774,244.179 120.800 C 243.925 119.831,243.936 119.825,244.530 120.600 C 245.110 121.357,245.158 121.361,245.423 120.677 C 245.583 120.265,245.948 120.048,246.272 120.172 C 246.588 120.293,246.733 120.214,246.597 119.995 C 246.463 119.778,246.678 119.587,247.076 119.572 C 247.722 119.547,247.714 119.507,247.000 119.200 C 246.316 118.906,246.301 118.852,246.900 118.828 C 247.285 118.813,247.600 118.530,247.600 118.200 C 247.600 117.870,247.915 117.603,248.300 117.606 C 248.887 117.611,248.905 117.672,248.412 117.984 C 248.088 118.189,247.963 118.496,248.133 118.667 C 248.505 119.038,249.185 118.064,249.194 117.149 C 249.201 116.426,250.289 115.355,250.650 115.716 C 251.002 116.069,250.396 116.845,249.972 116.583 C 249.768 116.456,249.600 116.633,249.600 116.976 C 249.600 117.319,249.697 117.600,249.816 117.600 C 250.351 117.600,252.400 115.796,252.400 115.325 C 252.400 115.036,252.625 114.797,252.900 114.793 C 253.530 114.784,255.390 112.856,255.073 112.540 C 254.944 112.411,254.547 112.596,254.190 112.952 C 253.834 113.309,253.342 113.600,253.096 113.600 C 252.850 113.600,253.088 113.202,253.625 112.716 C 254.161 112.229,254.894 111.505,255.254 111.107 C 255.831 110.468,255.936 110.457,256.149 111.013 C 256.282 111.359,256.225 111.539,256.023 111.414 C 255.821 111.289,255.550 111.357,255.421 111.566 C 254.828 112.525,255.998 112.246,257.014 111.186 C 257.638 110.534,257.981 109.995,257.775 109.988 C 257.569 109.981,257.728 109.785,258.128 109.552 C 258.796 109.164,258.802 109.089,258.201 108.650 C 257.605 108.214,257.620 108.106,258.373 107.424 C 259.335 106.553,259.500 106.843,258.571 107.771 C 258.000 108.343,258.024 108.400,258.838 108.400 C 259.330 108.400,259.614 108.281,259.469 108.136 C 259.324 107.991,259.564 107.620,260.003 107.313 C 260.947 106.651,261.043 106.000,260.196 106.000 C 259.715 106.000,259.776 105.716,260.496 104.605 C 261.504 103.049,262.033 102.786,261.716 104.000 C 261.601 104.440,261.348 104.800,261.153 104.800 C 260.959 104.800,260.800 104.980,260.800 105.200 C 260.800 105.935,261.459 105.611,261.993 104.614 C 262.283 104.071,262.673 103.722,262.860 103.837 C 263.267 104.088,263.318 103.451,262.923 103.056 C 262.446 102.579,262.360 101.128,262.826 101.416 C 263.062 101.562,263.145 101.968,263.010 102.318 C 262.812 102.835,262.918 102.817,263.573 102.224 C 264.018 101.822,264.284 101.336,264.165 101.144 C 264.046 100.952,264.213 100.693,264.535 100.570 C 265.038 100.376,265.555 99.401,265.746 98.285 C 265.776 98.112,266.048 97.818,266.351 97.630 C 266.654 97.443,266.777 97.086,266.624 96.838 C 266.470 96.590,266.177 96.491,265.972 96.617 C 265.768 96.744,265.600 96.554,265.600 96.197 C 265.600 95.738,265.826 95.618,266.366 95.789 C 267.348 96.101,267.774 95.431,267.052 94.709 C 266.581 94.238,266.580 93.975,267.043 92.977 L 267.590 91.800 267.372 93.062 C 267.251 93.761,267.342 94.441,267.577 94.586 C 267.935 94.807,268.114 94.051,267.966 92.945 C 267.947 92.804,268.167 92.544,268.455 92.366 C 268.861 92.115,268.824 91.984,268.289 91.779 C 267.536 91.490,267.368 90.591,267.995 90.203 C 268.228 90.059,268.285 90.234,268.134 90.628 C 267.910 91.211,267.989 91.202,268.739 90.560 C 269.638 89.790,269.890 89.374,269.197 89.802 C 268.733 90.089,268.165 88.902,268.572 88.494 C 268.721 88.345,269.011 88.488,269.216 88.812 C 269.567 89.367,269.821 88.597,269.647 87.500 C 269.621 87.335,269.780 87.200,270.000 87.200 C 270.220 87.200,270.400 86.649,270.400 85.976 C 270.400 85.303,270.563 84.854,270.763 84.977 C 270.962 85.100,271.030 84.838,270.914 84.394 C 270.558 83.031,270.001 83.080,269.982 84.476 C 269.961 86.043,268.886 88.744,268.832 87.367 C 268.815 86.908,268.935 86.398,269.100 86.233 C 269.438 85.895,269.480 85.690,269.550 84.000 C 269.582 83.222,269.811 82.800,270.200 82.800 C 270.530 82.800,270.800 82.609,270.800 82.376 C 270.800 82.143,270.601 82.076,270.357 82.226 C 270.063 82.409,270.000 82.230,270.171 81.692 C 270.312 81.247,270.444 80.069,270.464 79.073 C 270.494 77.587,270.616 77.303,271.150 77.486 C 271.604 77.641,271.559 77.514,271.000 77.067 C 270.363 76.556,270.327 76.423,270.826 76.413 C 271.327 76.403,271.438 75.944,271.383 74.100 C 271.328 72.265,271.348 72.184,271.478 73.700 C 271.746 76.815,272.250 75.856,272.267 72.200 C 272.278 69.676,272.149 68.800,271.764 68.800 C 271.463 68.800,271.310 68.468,271.398 68.008 C 271.487 67.548,271.352 67.255,271.075 67.308 C 270.773 67.367,270.579 66.760,270.542 65.644 C 270.506 64.570,270.612 64.096,270.815 64.425 C 270.998 64.720,271.059 65.104,270.952 65.278 C 270.845 65.451,270.941 65.910,271.166 66.297 C 271.483 66.841,271.578 66.522,271.588 64.882 C 271.596 63.415,271.447 62.785,271.100 62.830 C 269.875 62.989,269.497 62.806,269.942 62.270 C 270.185 61.977,270.230 61.576,270.042 61.370 C 269.486 60.763,269.143 58.800,269.592 58.800 C 269.817 58.800,270.000 58.980,270.000 59.200 C 270.000 59.420,270.174 59.600,270.387 59.600 C 270.601 59.600,270.671 59.330,270.545 59.000 C 270.418 58.670,270.053 58.400,269.734 58.400 C 269.414 58.400,269.255 58.235,269.379 58.034 C 269.503 57.833,269.448 57.608,269.255 57.534 C 268.690 57.317,268.283 55.600,268.797 55.600 C 269.044 55.600,269.149 55.760,269.028 55.955 C 268.765 56.380,269.769 57.298,270.116 56.951 C 270.439 56.628,269.196 54.755,268.815 54.991 C 268.486 55.194,267.463 53.204,267.749 52.918 C 267.847 52.820,268.046 53.113,268.190 53.570 C 268.335 54.026,268.644 54.400,268.876 54.400 C 269.156 54.400,269.144 54.215,268.842 53.851 C 268.591 53.549,268.486 53.042,268.607 52.725 C 268.729 52.409,268.431 51.801,267.945 51.375 C 267.460 50.949,267.186 50.813,267.338 51.072 C 267.489 51.332,267.430 51.658,267.207 51.796 C 266.983 51.934,266.800 51.777,266.800 51.447 C 266.800 51.117,266.973 50.740,267.185 50.609 C 267.422 50.463,267.431 50.009,267.210 49.427 C 267.013 48.907,266.960 48.374,267.092 48.241 C 267.225 48.109,267.129 48.000,266.879 48.000 C 266.629 48.000,266.529 47.730,266.655 47.400 C 266.797 47.031,266.655 46.800,266.287 46.800 C 265.958 46.800,265.714 46.504,265.744 46.143 C 265.775 45.782,265.575 45.407,265.300 45.310 C 265.023 45.212,264.786 45.461,264.768 45.867 C 264.744 46.427,264.685 46.459,264.516 46.000 C 264.395 45.670,264.073 45.130,263.802 44.800 C 263.530 44.470,263.181 43.660,263.027 43.000 C 262.777 41.927,262.805 41.877,263.288 42.527 C 263.802 43.218,263.829 43.213,263.829 42.427 C 263.829 41.513,262.620 41.264,262.238 42.100 C 262.112 42.375,262.112 42.015,262.236 41.300 C 262.383 40.462,262.302 40.000,262.008 40.000 C 261.758 40.000,261.662 39.823,261.796 39.606 C 261.930 39.390,261.419 38.592,260.660 37.833 C 259.901 37.074,259.358 36.375,259.453 36.280 C 259.548 36.185,259.170 36.157,258.613 36.218 C 257.489 36.342,257.434 36.258,257.973 35.250 C 258.258 34.718,258.063 34.251,257.146 33.270 C 256.134 32.186,255.200 31.888,255.200 32.647 C 255.200 32.757,255.408 32.719,255.662 32.562 C 255.954 32.381,256.015 32.452,255.827 32.756 C 255.664 33.019,255.749 33.497,256.015 33.818 C 256.875 34.854,256.230 34.435,255.064 33.199 C 254.322 32.413,254.173 32.091,254.631 32.267 C 255.109 32.451,255.239 32.387,255.042 32.068 C 254.879 31.805,254.982 31.583,255.276 31.560 C 255.564 31.538,255.350 31.391,254.800 31.232 C 254.208 31.062,253.822 30.672,253.855 30.277 C 253.885 29.909,253.750 29.707,253.555 29.828 C 253.360 29.949,253.200 29.783,253.200 29.459 C 253.200 29.114,252.910 28.926,252.500 29.005 C 252.115 29.078,251.710 29.155,251.600 29.176 C 251.490 29.196,251.670 29.387,252.000 29.600 C 252.533 29.945,252.533 29.988,252.000 29.988 C 251.670 29.988,251.130 29.813,250.800 29.600 C 250.287 29.269,250.302 29.211,250.900 29.206 C 251.285 29.203,251.600 28.930,251.600 28.600 C 251.600 28.270,251.375 28.045,251.100 28.100 C 250.825 28.155,250.645 27.975,250.700 27.700 C 250.755 27.425,250.429 27.200,249.976 27.200 C 249.434 27.200,249.249 27.370,249.435 27.700 C 249.656 28.092,249.605 28.096,249.196 27.717 C 248.767 27.320,248.772 27.106,249.224 26.517 C 249.526 26.123,249.620 25.930,249.431 26.089 C 249.243 26.248,248.561 25.933,247.916 25.390 C 247.010 24.629,246.574 24.493,246.007 24.796 C 245.487 25.075,244.940 25.017,244.136 24.597 C 243.091 24.052,243.072 24.005,243.900 24.002 C 244.395 24.001,244.800 23.808,244.800 23.573 C 244.800 23.320,244.454 23.256,243.950 23.416 C 243.482 23.564,243.193 23.531,243.308 23.343 C 243.422 23.154,243.281 22.783,242.994 22.518 C 242.584 22.140,242.426 22.156,242.258 22.592 C 242.141 22.898,242.219 23.236,242.432 23.344 C 242.646 23.452,242.590 23.486,242.310 23.420 C 242.030 23.354,241.845 23.097,241.900 22.850 C 241.955 22.602,241.661 22.400,241.246 22.400 C 239.859 22.400,238.591 21.461,238.724 20.531 C 238.824 19.828,238.691 19.704,238.024 19.878 C 237.571 19.996,237.200 20.235,237.200 20.409 C 237.200 20.583,236.744 20.517,236.186 20.262 C 235.518 19.958,235.232 19.561,235.349 19.100 C 235.446 18.716,235.334 18.283,235.101 18.139 C 234.867 17.994,234.792 18.064,234.934 18.293 C 235.229 18.771,234.112 19.846,233.724 19.457 C 233.582 19.316,233.677 19.200,233.933 19.200 C 234.190 19.200,234.400 18.990,234.400 18.733 C 234.400 18.477,234.283 18.384,234.140 18.527 C 233.996 18.670,233.662 18.491,233.397 18.129 C 232.883 17.425,231.356 17.682,231.798 18.397 C 231.935 18.619,231.777 18.800,231.447 18.800 C 231.117 18.800,230.736 18.620,230.600 18.400 C 230.464 18.180,229.866 18.000,229.271 18.000 C 228.533 18.000,228.064 17.714,227.795 17.100 C 227.373 16.139,224.899 15.804,225.100 16.736 C 225.218 17.286,224.814 17.323,224.042 16.834 C 223.735 16.640,223.594 16.193,223.729 15.840 C 224.058 14.983,223.377 15.024,222.723 15.900 C 222.013 16.850,221.207 16.954,221.168 16.100 C 221.150 15.682,221.056 15.601,220.935 15.900 C 220.682 16.528,219.342 16.554,218.962 15.938 C 218.791 15.663,218.851 15.585,219.111 15.745 C 219.349 15.892,219.648 15.846,219.775 15.641 C 219.906 15.429,219.488 15.350,218.802 15.459 C 218.103 15.569,217.600 15.471,217.600 15.224 C 217.600 14.658,216.920 14.683,216.562 15.262 M206.099 15.697 C 206.165 15.897,206.391 16.060,206.600 16.060 C 206.809 16.060,207.035 15.897,207.101 15.697 C 207.168 15.497,206.942 15.333,206.600 15.333 C 206.258 15.333,206.032 15.497,206.099 15.697 M189.852 21.808 C 189.717 22.162,189.412 22.331,189.176 22.185 C 188.940 22.039,188.500 22.253,188.199 22.660 C 187.800 23.199,187.674 23.237,187.737 22.800 C 187.909 21.594,188.429 21.126,189.036 21.630 C 189.486 22.003,189.600 21.953,189.600 21.382 C 189.600 20.989,189.712 20.779,189.849 20.916 C 189.987 21.053,189.988 21.455,189.852 21.808 M180.955 25.772 C 180.824 26.115,180.527 26.279,180.296 26.136 C 180.063 25.992,179.994 26.067,180.141 26.304 C 180.286 26.539,180.179 26.812,179.902 26.911 C 179.626 27.010,179.517 27.218,179.661 27.373 C 179.979 27.717,181.511 26.810,181.775 26.121 C 181.879 25.849,181.792 25.518,181.580 25.387 C 181.368 25.256,181.087 25.430,180.955 25.772 M167.953 38.500 C 167.927 38.775,167.939 39.243,167.979 39.540 C 168.026 39.882,167.860 39.968,167.527 39.776 C 167.237 39.609,167.120 39.606,167.267 39.769 C 167.413 39.933,167.188 40.412,166.767 40.833 C 166.345 41.255,166.000 41.881,166.000 42.224 C 166.000 42.567,165.840 42.749,165.645 42.628 C 165.450 42.507,165.315 42.722,165.345 43.104 C 165.375 43.487,165.205 43.765,164.967 43.722 C 164.728 43.679,164.533 43.887,164.533 44.184 C 164.533 45.072,165.928 43.982,166.354 42.760 C 166.557 42.179,167.080 41.365,167.517 40.952 C 167.954 40.538,168.309 39.705,168.306 39.100 C 168.300 37.998,168.042 37.560,167.953 38.500 M260.806 38.809 C 261.413 39.792,260.752 40.067,259.964 39.159 C 259.039 38.092,259.033 38.046,259.832 38.164 C 260.180 38.215,260.618 38.505,260.806 38.809 M266.800 49.244 C 266.800 50.106,266.040 49.484,265.645 48.300 L 265.212 47.000 266.006 47.944 C 266.443 48.464,266.800 49.049,266.800 49.244 M270.000 60.557 C 270.000 60.864,270.295 61.228,270.657 61.366 C 271.188 61.570,271.223 61.509,270.840 61.048 C 270.473 60.606,270.482 60.431,270.883 60.270 C 271.212 60.139,271.145 60.052,270.700 60.032 C 270.315 60.014,270.000 60.251,270.000 60.557 M158.723 66.372 C 158.674 67.017,158.516 67.471,158.371 67.382 C 158.102 67.216,158.363 65.200,158.653 65.200 C 158.741 65.200,158.773 65.728,158.723 66.372 M271.061 79.100 C 270.810 80.464,270.858 81.600,271.167 81.600 C 271.295 81.600,271.431 80.790,271.469 79.800 C 271.548 77.771,271.364 77.455,271.061 79.100 M265.000 98.800 C 265.136 99.020,264.979 99.200,264.651 99.200 C 264.322 99.200,263.935 99.574,263.790 100.030 C 263.646 100.487,263.447 100.780,263.349 100.682 C 263.095 100.428,264.065 98.400,264.441 98.400 C 264.612 98.400,264.864 98.580,265.000 98.800 M168.622 104.765 C 168.474 105.004,168.173 105.200,167.953 105.200 C 167.733 105.200,167.664 105.020,167.800 104.800 C 167.936 104.580,167.812 104.397,167.524 104.394 C 167.142 104.389,167.162 104.285,167.597 104.011 C 168.288 103.574,169.023 104.115,168.622 104.765 M171.600 109.800 C 171.600 110.130,171.780 110.400,172.000 110.400 C 172.220 110.400,172.355 110.614,172.300 110.876 C 172.245 111.138,172.515 111.421,172.900 111.506 C 173.867 111.717,173.777 110.848,172.739 109.947 C 171.698 109.044,171.600 109.032,171.600 109.800 M179.600 117.400 C 179.600 117.767,179.793 118.002,180.030 117.923 C 180.267 117.844,180.460 117.609,180.460 117.400 C 180.460 117.191,180.267 116.956,180.030 116.877 C 179.793 116.798,179.600 117.033,179.600 117.400 M190.400 124.000 C 190.400 124.220,190.670 124.400,191.000 124.400 C 191.330 124.400,191.600 124.220,191.600 124.000 C 191.600 123.780,191.330 123.600,191.000 123.600 C 190.670 123.600,190.400 123.780,190.400 124.000 M203.781 128.314 C 204.169 128.703,206.800 128.790,206.800 128.414 C 206.800 128.238,206.061 128.084,205.158 128.072 C 204.255 128.059,203.635 128.168,203.781 128.314 M223.200 128.455 C 223.200 128.615,223.743 128.731,224.406 128.712 C 225.069 128.693,225.504 128.570,225.372 128.439 C 225.028 128.095,223.200 128.108,223.200 128.455 M208.477 128.836 C 208.697 129.503,210.400 129.850,210.400 129.228 C 210.400 128.993,210.235 128.800,210.033 128.800 C 209.831 128.800,209.356 128.681,208.978 128.536 C 208.496 128.351,208.346 128.441,208.477 128.836 M218.800 128.874 C 218.030 129.047,216.950 129.095,216.400 128.982 C 215.682 128.834,215.561 128.883,215.969 129.154 C 216.821 129.720,220.715 129.584,221.225 128.970 C 221.721 128.372,221.146 128.349,218.800 128.874 M148.981 313.114 C 149.095 313.228,148.875 313.558,148.494 313.848 C 148.112 314.137,148.004 314.380,148.254 314.387 C 148.743 314.401,151.133 313.241,150.800 313.151 C 150.119 312.969,148.809 312.942,148.981 313.114 M153.840 313.266 C 153.421 313.509,152.368 313.756,151.499 313.815 C 150.629 313.874,149.721 314.119,149.479 314.361 C 148.882 314.958,147.601 314.917,147.594 314.300 C 147.590 313.962,147.467 313.991,147.215 314.389 C 146.977 314.765,146.993 315.072,147.259 315.237 C 147.488 315.378,147.188 315.617,146.591 315.767 C 145.994 315.916,145.608 316.142,145.734 316.267 C 146.101 316.634,144.841 317.684,144.296 317.464 C 143.919 317.311,143.925 317.256,144.324 317.232 C 144.612 317.214,144.736 317.020,144.600 316.800 C 144.251 316.235,143.600 316.303,143.600 316.904 C 143.600 317.181,143.240 317.632,142.800 317.907 C 142.360 318.182,142.000 318.765,142.000 319.203 C 142.000 319.642,141.820 320.000,141.600 320.000 C 141.380 320.000,141.200 320.600,141.200 321.333 C 141.200 322.067,141.075 322.792,140.921 322.945 C 140.562 323.305,140.462 327.191,140.807 327.404 C 140.951 327.494,141.043 327.079,141.011 326.483 C 140.978 325.887,141.089 324.950,141.256 324.400 C 141.440 323.797,141.505 324.471,141.420 326.101 C 141.343 327.587,141.442 328.902,141.640 329.025 C 141.838 329.147,142.018 328.832,142.040 328.324 C 142.079 327.418,142.085 327.420,142.365 328.400 C 142.536 329.000,142.477 329.480,142.217 329.600 C 141.978 329.710,141.787 329.980,141.792 330.200 C 141.808 330.918,143.652 333.215,144.026 332.984 C 144.227 332.860,144.287 333.029,144.160 333.359 C 143.984 333.818,144.163 333.917,144.917 333.781 C 145.496 333.676,146.109 333.849,146.401 334.201 C 146.990 334.911,146.373 335.013,145.680 334.320 C 145.416 334.056,145.200 334.016,145.200 334.231 C 145.200 334.647,146.342 335.741,146.984 335.940 C 147.196 336.006,147.468 335.777,147.589 335.431 C 147.774 334.905,147.895 334.940,148.334 335.643 C 148.623 336.106,148.678 336.372,148.457 336.235 C 148.236 336.099,147.965 336.133,147.855 336.310 C 147.745 336.488,147.999 336.660,148.420 336.692 C 148.840 336.723,149.288 336.581,149.416 336.375 C 149.543 336.169,150.109 336.000,150.673 336.000 C 151.520 336.000,151.615 336.100,151.220 336.576 C 150.957 336.893,150.440 337.047,150.071 336.917 C 149.518 336.724,149.490 336.779,149.910 337.231 C 150.319 337.672,150.575 337.683,151.205 337.290 C 152.189 336.675,152.530 336.665,152.162 337.262 C 151.981 337.555,152.053 337.615,152.358 337.426 C 152.674 337.231,152.707 336.970,152.453 336.664 C 152.165 336.318,152.791 336.218,154.912 336.272 C 156.759 336.318,157.553 336.215,157.178 335.978 C 156.731 335.695,156.810 335.611,157.524 335.606 C 158.039 335.603,158.338 335.777,158.200 336.000 C 158.064 336.220,158.143 336.400,158.376 336.400 C 158.609 336.400,158.800 336.205,158.800 335.967 C 158.800 335.728,159.025 335.611,159.300 335.706 C 159.575 335.801,160.196 335.456,160.681 334.939 C 161.165 334.423,161.750 334.000,161.981 334.000 C 162.211 334.000,162.400 333.719,162.400 333.376 C 162.400 333.033,162.220 332.864,162.000 333.000 C 161.418 333.360,161.509 332.911,162.246 331.786 C 162.924 330.750,163.832 330.418,163.481 331.333 C 163.368 331.627,163.521 331.867,163.821 331.867 C 164.120 331.867,164.255 331.689,164.121 331.473 C 163.987 331.256,164.181 330.857,164.551 330.587 C 165.158 330.143,165.161 330.071,164.586 329.850 C 164.236 329.716,164.063 329.421,164.202 329.196 C 164.341 328.971,164.623 328.891,164.828 329.017 C 165.032 329.144,165.200 328.947,165.200 328.581 C 165.200 328.132,164.989 327.995,164.555 328.162 C 164.084 328.343,163.976 328.238,164.155 327.772 C 164.290 327.421,164.400 326.869,164.400 326.544 C 164.400 326.219,164.583 326.066,164.807 326.204 C 165.030 326.342,165.117 326.610,165.000 326.800 C 164.883 326.990,164.998 327.275,165.255 327.434 C 165.548 327.615,165.616 327.550,165.438 327.262 C 165.281 327.008,165.313 326.800,165.510 326.800 C 166.070 326.800,165.927 324.458,165.354 324.238 C 165.033 324.115,164.924 324.258,165.063 324.620 C 165.186 324.939,165.125 325.200,164.928 325.200 C 164.731 325.200,164.527 324.639,164.475 323.953 C 164.401 322.979,164.513 322.758,164.990 322.941 C 165.326 323.070,165.600 323.001,165.600 322.787 C 165.600 322.574,165.401 322.400,165.157 322.400 C 164.914 322.400,164.818 322.130,164.945 321.800 C 165.071 321.470,165.001 321.200,164.787 321.200 C 164.574 321.200,164.386 321.515,164.368 321.900 C 164.345 322.416,164.278 322.451,164.113 322.035 C 163.990 321.724,164.166 321.268,164.503 321.022 C 165.032 320.635,165.039 320.469,164.558 319.810 C 164.051 319.116,164.000 319.111,164.000 319.747 C 164.000 320.132,163.813 320.331,163.584 320.190 C 163.355 320.048,163.291 319.544,163.441 319.069 C 163.676 318.329,163.628 318.279,163.104 318.713 C 162.603 319.130,162.450 319.107,162.251 318.589 C 162.118 318.242,162.151 318.046,162.324 318.153 C 162.810 318.453,163.593 317.828,163.279 317.389 C 163.125 317.175,162.640 316.800,162.200 316.556 C 161.760 316.312,161.400 315.911,161.400 315.664 C 161.400 314.818,158.484 313.617,157.960 314.248 C 157.708 314.552,157.299 314.797,157.051 314.794 C 156.803 314.791,156.870 314.613,157.200 314.400 C 157.698 314.078,157.664 314.010,157.000 314.000 C 156.336 313.990,156.302 313.922,156.800 313.598 C 157.259 313.299,157.142 313.227,156.300 313.291 C 155.695 313.337,155.200 313.515,155.200 313.687 C 155.200 313.859,154.806 314.000,154.324 314.000 C 153.467 314.000,153.465 313.987,154.224 313.413 C 155.139 312.721,154.922 312.638,153.840 313.266 M159.641 315.026 C 159.733 314.934,160.028 315.323,160.296 315.891 L 160.783 316.923 159.866 316.062 C 159.361 315.588,158.724 315.200,158.451 315.200 C 158.177 315.200,158.069 315.011,158.212 314.781 C 158.392 314.490,158.625 314.489,158.972 314.777 C 159.248 315.006,159.549 315.118,159.641 315.026 M142.887 320.473 C 142.626 320.734,142.275 320.799,142.107 320.619 C 141.938 320.438,142.026 320.210,142.302 320.111 C 142.579 320.012,142.687 319.722,142.544 319.466 C 142.376 319.166,142.475 319.179,142.821 319.500 C 143.236 319.885,143.251 320.109,142.887 320.473 M160.925 333.966 C 160.733 334.701,158.941 335.475,158.486 335.019 C 158.365 334.899,158.484 334.800,158.750 334.800 C 159.016 334.800,159.620 334.440,160.092 334.000 C 161.147 333.017,161.173 333.016,160.925 333.966 M154.419 336.780 C 154.100 336.982,153.667 337.041,153.457 336.912 C 153.248 336.782,153.198 336.873,153.346 337.113 C 153.715 337.710,155.200 337.552,155.200 336.915 C 155.200 336.307,155.173 336.303,154.419 336.780 " stroke="none" fill="#fc8cbc" fill-rule="evenodd"></path><path id="path2" d="M271.200 186.000 C 271.200 186.220,270.210 186.400,269.000 186.400 C 267.790 186.400,266.800 186.580,266.800 186.800 C 266.800 187.020,265.911 187.200,264.824 187.200 C 263.737 187.200,262.748 187.360,262.627 187.557 C 262.506 187.753,260.605 188.042,258.403 188.200 C 256.201 188.357,254.400 188.647,254.400 188.843 C 254.400 189.039,253.680 189.200,252.800 189.200 C 251.920 189.200,251.200 189.380,251.200 189.600 C 251.200 189.820,250.930 190.000,250.600 190.000 C 250.270 190.000,250.000 190.180,250.000 190.400 C 250.000 190.620,249.190 190.800,248.200 190.800 C 247.210 190.800,246.400 190.977,246.400 191.192 C 246.400 191.408,245.905 191.693,245.300 191.825 C 243.655 192.184,242.000 192.861,242.000 193.174 C 242.000 193.326,241.370 193.698,240.600 194.000 C 239.830 194.302,239.200 194.690,239.200 194.862 C 239.200 195.034,238.941 195.075,238.624 194.954 C 238.298 194.829,237.823 195.094,237.528 195.567 C 237.242 196.025,236.691 196.400,236.304 196.400 C 235.616 196.400,235.199 202.616,235.555 207.576 C 235.609 208.333,235.417 209.398,235.127 209.942 C 234.710 210.725,234.704 210.966,235.100 211.099 C 235.742 211.314,235.744 212.979,235.104 214.005 C 234.706 214.643,234.712 214.968,235.137 215.647 C 235.516 216.255,235.543 216.617,235.233 216.927 C 234.679 217.481,234.670 219.472,235.219 219.812 C 235.510 219.991,235.504 220.234,235.201 220.599 C 234.960 220.889,234.789 221.818,234.821 222.663 C 234.990 227.224,234.704 239.107,234.413 239.578 C 234.220 239.892,234.257 240.527,234.502 241.063 C 234.809 241.737,234.801 242.281,234.473 243.000 C 234.130 243.753,234.133 244.255,234.486 245.030 C 234.847 245.821,234.845 246.237,234.478 246.824 C 233.902 247.745,233.855 249.063,234.385 249.391 C 234.631 249.543,234.631 249.992,234.385 250.640 C 233.864 252.009,233.899 253.600,234.449 253.600 C 234.762 253.600,234.773 253.752,234.485 254.100 C 234.118 254.544,233.956 259.827,233.569 283.800 C 233.506 287.733,233.497 287.770,233.008 286.000 C 232.202 283.081,231.927 282.400,231.553 282.400 C 231.359 282.400,231.194 281.905,231.187 281.300 C 231.180 280.695,230.910 279.851,230.587 279.424 C 230.264 278.996,230.000 278.140,230.000 277.520 C 230.000 276.887,229.649 276.091,229.200 275.707 C 228.733 275.307,228.396 274.519,228.391 273.811 C 228.386 273.145,228.030 272.150,227.600 271.600 C 227.170 271.050,226.814 270.139,226.809 269.576 C 226.804 269.014,226.536 268.204,226.213 267.776 C 225.890 267.349,225.620 266.606,225.613 266.124 C 225.606 265.642,225.420 265.136,225.200 265.000 C 224.980 264.864,224.800 264.403,224.800 263.976 C 224.800 263.549,224.640 263.200,224.445 263.200 C 224.250 263.200,223.971 262.403,223.825 261.428 C 223.679 260.454,223.209 259.210,222.780 258.665 C 222.351 258.120,221.994 257.252,221.987 256.737 C 221.980 256.222,221.710 255.451,221.387 255.024 C 221.064 254.596,220.800 253.769,220.800 253.185 C 220.800 252.600,220.440 251.707,220.000 251.200 C 219.560 250.693,219.200 249.799,219.200 249.214 C 219.200 248.629,218.870 247.797,218.467 247.364 C 218.063 246.931,217.622 245.893,217.487 245.058 C 217.201 243.296,216.340 241.200,215.902 241.200 C 215.736 241.200,215.600 240.647,215.600 239.971 C 215.600 239.296,215.330 238.473,215.000 238.143 C 214.670 237.813,214.400 237.050,214.400 236.447 C 214.400 235.844,214.040 234.964,213.600 234.492 C 213.160 234.020,212.800 233.092,212.800 232.431 C 212.800 231.638,212.528 231.082,212.000 230.800 C 211.417 230.488,211.200 229.962,211.200 228.862 C 211.200 228.032,210.936 227.004,210.613 226.576 C 210.290 226.149,210.020 225.395,210.013 224.900 C 210.006 224.405,209.820 224.000,209.600 224.000 C 209.380 224.000,209.200 223.550,209.200 223.000 C 209.200 222.450,209.040 222.000,208.845 222.000 C 208.649 222.000,208.366 221.325,208.215 220.500 C 208.065 219.675,207.595 218.405,207.171 217.677 C 206.747 216.950,206.400 215.942,206.400 215.439 C 206.400 214.936,206.040 214.198,205.600 213.800 C 205.101 213.348,204.800 212.568,204.800 211.725 C 204.800 210.894,204.569 210.286,204.200 210.145 C 203.816 209.997,203.600 209.381,203.600 208.433 C 203.600 207.504,203.301 206.630,202.800 206.092 C 202.360 205.620,202.000 204.971,202.000 204.649 C 202.000 203.484,201.496 202.800,200.637 202.800 C 200.155 202.800,199.570 202.610,199.339 202.379 C 199.107 202.147,197.991 201.936,196.859 201.910 C 195.726 201.885,194.800 201.714,194.800 201.532 C 194.800 201.046,179.301 201.113,179.000 201.600 C 178.864 201.820,177.874 202.000,176.800 202.000 C 175.726 202.000,174.736 202.180,174.600 202.400 C 174.464 202.620,173.463 202.800,172.376 202.800 C 171.289 202.800,170.400 202.963,170.400 203.163 C 170.400 203.362,168.687 203.654,166.594 203.811 C 164.501 203.968,162.690 204.254,162.570 204.448 C 162.451 204.642,161.859 204.800,161.256 204.800 C 160.060 204.800,158.008 205.620,158.003 206.100 C 158.001 206.265,157.302 206.400,156.449 206.400 C 155.558 206.400,154.686 206.655,154.400 207.000 C 154.126 207.330,153.562 207.600,153.146 207.600 C 152.321 207.600,151.053 208.228,149.800 209.257 C 149.360 209.618,148.417 210.037,147.705 210.188 C 146.992 210.338,146.317 210.611,146.204 210.793 C 146.091 210.976,146.359 211.031,146.799 210.916 C 147.265 210.794,147.600 210.904,147.600 211.177 C 147.600 211.436,147.420 211.536,147.200 211.400 C 146.980 211.264,146.800 211.467,146.800 211.851 C 146.800 212.234,146.404 212.970,145.920 213.485 C 144.774 214.705,144.832 217.852,146.020 218.864 C 146.489 219.263,146.800 220.033,146.800 220.793 C 146.800 221.488,147.070 222.327,147.400 222.657 C 147.730 222.987,148.000 223.689,148.000 224.216 C 148.000 224.744,148.360 225.817,148.800 226.600 C 149.240 227.383,149.600 228.253,149.600 228.532 C 149.600 229.233,150.538 231.193,150.875 231.197 C 151.027 231.199,151.270 231.996,151.416 232.968 C 151.562 233.941,152.023 235.103,152.441 235.551 C 152.858 236.000,153.200 236.837,153.200 237.412 C 153.200 237.987,153.447 238.704,153.749 239.006 C 154.051 239.309,154.541 240.376,154.837 241.378 C 155.133 242.380,155.515 243.200,155.687 243.200 C 155.859 243.200,156.000 243.470,156.000 243.800 C 156.000 244.130,156.180 244.400,156.400 244.400 C 156.620 244.400,156.800 244.940,156.800 245.600 C 156.800 246.260,156.966 246.800,157.168 246.800 C 157.371 246.800,157.655 247.338,157.799 247.995 C 157.943 248.653,158.228 249.294,158.431 249.419 C 158.634 249.545,158.800 250.047,158.800 250.535 C 158.800 251.024,159.160 251.683,159.600 252.000 C 160.040 252.317,160.400 252.972,160.400 253.456 C 160.400 254.365,161.571 256.898,162.100 257.133 C 162.265 257.207,162.400 257.700,162.400 258.230 C 162.400 258.760,162.760 259.418,163.200 259.693 C 163.686 259.996,164.000 260.626,164.000 261.296 C 164.000 261.903,164.191 262.400,164.424 262.400 C 164.657 262.400,164.735 262.581,164.598 262.803 C 164.461 263.024,164.721 263.727,165.175 264.364 C 165.629 265.002,166.000 265.901,166.000 266.362 C 166.000 266.823,166.145 267.200,166.323 267.200 C 166.726 267.200,168.000 270.035,168.000 270.931 C 168.000 271.295,168.360 271.818,168.800 272.093 C 169.240 272.368,169.600 272.999,169.600 273.496 C 169.600 273.993,169.780 274.400,170.000 274.400 C 170.220 274.400,170.400 274.850,170.400 275.400 C 170.400 275.950,170.577 276.400,170.792 276.400 C 171.008 276.400,171.304 276.895,171.451 277.500 C 171.597 278.105,172.018 279.050,172.387 279.600 C 172.755 280.150,173.374 281.455,173.762 282.500 C 174.149 283.545,174.631 284.400,174.833 284.400 C 175.035 284.400,175.200 284.850,175.200 285.400 C 175.200 285.950,175.380 286.400,175.600 286.400 C 175.820 286.400,176.000 286.766,176.000 287.213 C 176.000 287.659,176.270 288.129,176.600 288.255 C 176.930 288.382,177.200 288.799,177.200 289.181 C 177.200 290.174,178.386 292.420,179.044 292.672 C 179.350 292.790,179.600 293.334,179.600 293.881 C 179.600 294.867,180.722 297.276,181.300 297.533 C 181.465 297.607,181.600 297.915,181.600 298.219 C 181.600 298.523,182.050 299.578,182.600 300.563 C 183.150 301.548,183.600 302.600,183.600 302.902 C 183.600 303.203,183.960 303.836,184.400 304.308 C 184.840 304.780,185.200 305.444,185.200 305.783 C 185.200 306.122,185.360 306.400,185.557 306.400 C 185.753 306.400,186.026 306.850,186.164 307.400 C 186.302 307.950,186.592 308.400,186.808 308.400 C 187.023 308.400,187.200 308.749,187.200 309.176 C 187.200 309.603,187.380 310.064,187.600 310.200 C 187.820 310.336,188.000 310.797,188.000 311.224 C 188.000 311.651,188.177 312.000,188.392 312.000 C 188.608 312.000,188.898 312.450,189.036 313.000 C 189.174 313.550,189.447 314.000,189.643 314.000 C 189.840 314.000,190.000 314.410,190.000 314.912 C 190.000 315.413,190.360 316.083,190.800 316.400 C 191.240 316.717,191.600 317.297,191.600 317.688 C 191.600 318.080,191.780 318.400,192.000 318.400 C 192.220 318.400,192.400 318.655,192.400 318.968 C 192.400 319.681,193.698 321.994,194.100 321.997 C 194.265 321.999,194.400 322.450,194.400 323.000 C 194.400 323.550,194.566 324.000,194.769 324.000 C 194.973 324.000,195.648 325.077,196.269 326.393 C 196.891 327.710,197.715 328.892,198.100 329.020 C 198.485 329.149,198.800 329.652,198.800 330.138 C 198.800 331.079,199.691 332.584,200.878 333.647 C 201.275 334.003,201.600 334.598,201.600 334.971 C 201.600 335.343,201.780 335.536,202.000 335.400 C 202.220 335.264,202.400 335.366,202.400 335.627 C 202.400 336.155,223.157 335.921,224.027 335.384 C 224.283 335.225,226.221 335.026,228.332 334.942 C 230.444 334.857,232.349 334.611,232.566 334.394 C 232.783 334.177,233.824 334.000,234.880 334.000 C 235.936 334.000,236.800 333.853,236.800 333.673 C 236.800 333.386,238.760 333.108,247.500 332.155 C 248.655 332.029,249.600 331.763,249.600 331.563 C 249.600 331.363,250.489 331.200,251.576 331.200 C 252.663 331.200,253.664 331.020,253.800 330.800 C 253.936 330.580,254.677 330.400,255.447 330.400 C 256.217 330.400,256.750 330.242,256.630 330.049 C 256.380 329.644,258.276 329.200,260.250 329.200 C 260.993 329.200,261.600 329.020,261.600 328.800 C 261.600 328.580,262.039 328.400,262.576 328.400 C 263.113 328.400,263.664 328.220,263.800 328.000 C 263.936 327.780,264.487 327.600,265.024 327.600 C 265.561 327.600,266.000 327.420,266.000 327.200 C 266.000 326.980,266.788 326.800,267.751 326.800 C 268.820 326.800,269.696 326.566,270.000 326.200 C 270.274 325.870,271.072 325.600,271.774 325.600 C 272.496 325.600,273.421 325.253,273.908 324.800 C 274.380 324.360,275.292 324.000,275.934 324.000 C 276.577 324.000,277.324 323.732,277.596 323.404 C 277.868 323.077,278.250 322.907,278.445 323.028 C 278.640 323.149,278.800 322.787,278.800 322.224 C 278.800 321.661,278.957 321.200,279.150 321.200 C 279.454 321.200,279.761 320.309,280.251 318.000 C 280.321 317.670,280.498 316.180,280.645 314.689 C 280.791 313.198,281.066 311.883,281.256 311.766 C 281.445 311.649,281.600 310.663,281.600 309.576 C 281.600 308.489,281.780 307.600,282.000 307.600 C 282.220 307.600,282.400 306.736,282.400 305.680 C 282.400 304.624,282.563 303.589,282.763 303.380 C 283.136 302.990,283.244 302.249,284.061 294.500 C 284.322 292.025,284.670 290.000,284.835 290.000 C 285.000 290.000,285.141 288.878,285.147 287.507 C 285.154 286.130,285.347 284.951,285.580 284.873 C 286.162 284.679,286.108 283.710,285.500 283.464 C 285.104 283.303,285.107 283.185,285.515 282.897 C 285.804 282.693,286.071 281.582,286.123 280.367 C 286.174 279.175,286.330 278.020,286.469 277.800 C 286.608 277.580,286.835 275.333,286.974 272.807 C 287.113 270.280,287.401 268.039,287.613 267.827 C 288.161 267.279,288.093 266.104,287.500 265.865 C 287.100 265.704,287.100 265.657,287.500 265.632 C 287.845 265.610,288.000 264.801,288.000 263.024 C 288.000 261.607,288.180 260.336,288.400 260.200 C 288.620 260.064,288.800 258.962,288.800 257.750 C 288.800 256.539,288.999 255.176,289.241 254.723 C 289.580 254.090,289.557 253.821,289.145 253.566 C 288.716 253.301,288.708 253.132,289.103 252.737 C 289.386 252.454,289.600 251.229,289.600 249.894 C 289.600 248.603,289.786 247.199,290.014 246.774 C 290.290 246.258,290.296 245.753,290.033 245.261 C 289.782 244.792,289.777 244.383,290.019 244.141 C 290.412 243.748,290.689 240.655,290.760 235.876 C 290.785 234.172,290.950 233.245,291.200 233.400 C 291.420 233.536,291.600 233.277,291.600 232.824 C 291.600 232.371,291.420 232.000,291.200 232.000 C 290.980 232.000,290.800 231.730,290.800 231.400 C 290.800 231.070,290.980 230.800,291.200 230.800 C 291.426 230.800,291.600 229.665,291.600 228.195 C 291.600 226.762,291.825 225.208,292.100 224.742 C 292.500 224.065,292.500 223.859,292.100 223.714 C 291.509 223.500,291.431 222.525,291.990 222.333 C 292.204 222.260,292.417 220.255,292.463 217.878 C 292.509 215.501,292.673 213.479,292.827 213.383 C 292.981 213.288,293.145 211.003,293.190 208.305 C 293.561 186.284,293.615 187.200,291.955 187.200 C 291.320 187.200,290.800 187.020,290.800 186.800 C 290.800 186.578,289.733 186.400,288.400 186.400 C 287.080 186.400,286.000 186.243,286.000 186.050 C 286.000 185.490,279.879 185.550,279.521 186.114 C 279.282 186.491,279.211 186.488,279.206 186.100 C 279.202 185.784,278.609 185.600,277.595 185.600 C 276.712 185.600,275.608 185.825,275.142 186.100 C 274.465 186.500,274.259 186.500,274.114 186.100 C 273.901 185.509,271.200 185.417,271.200 186.000 M79.500 260.702 C 78.235 260.778,77.200 261.011,77.200 261.220 C 77.200 261.429,76.671 261.600,76.024 261.600 C 75.377 261.600,74.736 261.780,74.600 262.000 C 74.464 262.220,74.003 262.400,73.576 262.400 C 73.149 262.400,72.800 262.566,72.800 262.768 C 72.800 262.971,72.305 263.247,71.700 263.382 C 69.224 263.934,63.134 270.024,62.582 272.500 C 62.447 273.105,62.171 273.600,61.968 273.600 C 61.766 273.600,61.600 273.949,61.600 274.376 C 61.600 274.803,61.420 275.264,61.200 275.400 C 60.980 275.536,60.800 276.177,60.800 276.824 C 60.800 277.471,60.620 278.000,60.400 278.000 C 60.179 278.000,60.000 279.040,60.000 280.320 C 60.000 281.596,59.789 282.851,59.531 283.109 C 59.172 283.468,59.172 283.820,59.531 284.608 C 59.789 285.174,60.000 286.519,60.000 287.595 C 60.000 288.672,60.180 289.664,60.400 289.800 C 60.620 289.936,60.800 290.487,60.800 291.024 C 60.800 291.561,60.980 292.000,61.200 292.000 C 61.420 292.000,61.600 292.450,61.600 293.000 C 61.600 293.550,61.780 294.000,62.000 294.000 C 62.220 294.000,62.400 294.347,62.400 294.771 C 62.400 295.196,62.670 295.813,63.000 296.143 C 63.330 296.473,63.600 296.854,63.600 296.990 C 63.600 297.224,64.341 298.087,66.268 300.096 C 66.745 300.593,67.798 301.540,68.608 302.200 C 69.418 302.860,70.322 303.627,70.617 303.905 C 70.912 304.183,71.704 304.521,72.377 304.655 C 73.050 304.790,73.600 305.058,73.600 305.250 C 73.600 305.443,74.050 305.600,74.600 305.600 C 75.150 305.600,75.600 305.780,75.600 306.000 C 75.600 306.220,76.194 306.400,76.920 306.400 C 77.646 306.400,78.432 306.592,78.668 306.828 C 79.422 307.582,90.400 306.768,90.400 305.958 C 90.400 305.761,90.707 305.600,91.082 305.600 C 91.987 305.600,96.400 303.550,96.400 303.130 C 96.400 302.948,96.594 302.800,96.832 302.800 C 97.290 302.800,102.000 298.246,102.000 297.803 C 102.000 297.660,102.270 297.273,102.600 296.943 C 102.930 296.613,103.200 295.996,103.200 295.571 C 103.200 295.147,103.380 294.800,103.600 294.800 C 103.820 294.800,104.000 294.530,104.000 294.200 C 104.000 293.870,104.180 293.600,104.400 293.600 C 104.620 293.600,104.800 293.161,104.800 292.624 C 104.800 292.087,104.980 291.536,105.200 291.400 C 105.420 291.264,105.600 290.533,105.600 289.776 C 105.600 289.019,105.791 288.400,106.024 288.400 C 106.852 288.400,106.021 276.708,105.156 276.173 C 104.960 276.052,104.800 275.603,104.800 275.176 C 104.800 274.749,104.620 274.400,104.400 274.400 C 104.180 274.400,104.000 274.130,104.000 273.800 C 104.000 273.470,103.843 273.200,103.650 273.200 C 103.458 273.200,103.192 272.658,103.059 271.996 C 102.810 270.751,101.632 269.339,97.857 265.757 C 97.070 265.011,96.241 264.400,96.013 264.400 C 95.786 264.400,95.600 264.255,95.600 264.077 C 95.600 263.673,92.764 262.400,91.866 262.400 C 91.500 262.400,91.200 262.220,91.200 262.000 C 91.200 261.780,90.765 261.600,90.233 261.600 C 89.702 261.600,89.207 261.447,89.133 261.261 C 88.976 260.862,82.800 260.503,79.500 260.702 " stroke="none" fill="#147ca4" fill-rule="evenodd"></path><path id="path3" d="M212.325 14.824 C 212.248 15.057,211.609 15.265,210.906 15.285 C 210.203 15.305,209.696 15.432,209.780 15.567 C 210.073 16.041,217.200 16.071,217.200 15.599 C 217.200 15.353,216.975 15.267,216.700 15.406 C 216.425 15.545,216.549 15.376,216.976 15.030 C 217.701 14.442,217.577 14.400,215.110 14.400 C 213.603 14.400,212.406 14.582,212.325 14.824 M205.706 15.953 C 205.777 16.884,207.595 17.216,207.606 16.300 C 207.610 15.978,207.717 15.947,207.906 16.213 C 208.242 16.686,209.200 16.751,209.200 16.300 C 209.200 16.135,209.200 15.865,209.200 15.700 C 209.199 15.085,207.247 15.301,206.997 15.944 C 206.768 16.534,206.688 16.525,206.193 15.853 C 205.665 15.135,205.645 15.139,205.706 15.953 M218.680 15.875 C 219.950 16.534,220.676 16.542,220.935 15.900 C 221.067 15.574,221.148 15.620,221.168 16.033 C 221.211 16.894,222.186 16.834,222.747 15.936 C 223.174 15.253,223.024 15.210,220.436 15.278 C 217.883 15.345,217.747 15.391,218.680 15.875 M223.632 16.100 C 223.614 16.485,223.675 16.800,223.767 16.800 C 223.859 16.800,224.189 16.898,224.501 17.017 C 224.842 17.148,225.067 16.983,225.067 16.600 C 225.067 16.251,224.838 16.053,224.559 16.160 C 224.280 16.267,223.964 16.140,223.857 15.878 C 223.751 15.615,223.649 15.715,223.632 16.100 M201.454 16.915 C 200.946 17.517,200.648 17.640,200.521 17.300 C 200.261 16.607,198.800 16.669,198.800 17.373 C 198.800 18.083,201.019 18.100,201.604 17.395 C 201.825 17.129,202.621 16.961,203.373 17.020 C 204.154 17.082,204.820 16.925,204.924 16.653 C 205.120 16.143,203.682 16.055,202.914 16.530 C 202.669 16.681,202.408 16.631,202.334 16.417 C 202.260 16.204,201.864 16.428,201.454 16.915 M225.902 16.266 C 226.179 16.377,226.303 16.633,226.179 16.834 C 226.055 17.035,226.255 17.200,226.625 17.200 C 227.178 17.200,227.209 17.093,226.800 16.600 C 226.526 16.270,226.099 16.014,225.851 16.032 C 225.570 16.051,225.589 16.140,225.902 16.266 M228.000 17.400 C 228.000 17.797,228.397 18.000,229.176 18.000 C 229.823 18.000,230.464 18.180,230.600 18.400 C 230.984 19.022,231.867 18.871,231.867 18.183 C 231.867 17.843,231.644 17.651,231.372 17.755 C 231.100 17.860,230.545 17.693,230.139 17.385 C 229.159 16.643,228.000 16.651,228.000 17.400 M196.162 18.062 C 195.985 18.348,196.052 18.415,196.338 18.238 C 196.592 18.081,196.800 18.143,196.800 18.376 C 196.800 18.925,196.569 18.910,195.572 18.300 C 194.885 17.879,194.694 17.909,194.367 18.483 C 194.154 18.859,193.732 19.072,193.430 18.956 C 193.128 18.840,192.745 18.966,192.579 19.235 C 192.385 19.547,192.443 19.621,192.738 19.438 C 193.010 19.270,193.200 19.404,193.200 19.764 C 193.200 20.143,193.428 20.287,193.800 20.145 C 194.130 20.018,194.400 19.664,194.400 19.357 C 194.400 19.051,194.591 18.800,194.824 18.800 C 195.057 18.800,195.136 18.980,195.000 19.200 C 194.649 19.768,196.142 19.698,196.720 19.120 C 197.291 18.549,197.356 17.600,196.824 17.600 C 196.617 17.600,196.319 17.808,196.162 18.062 M233.600 18.424 C 233.600 18.657,233.780 18.736,234.000 18.600 C 234.220 18.464,234.400 18.543,234.400 18.776 C 234.400 19.009,234.190 19.200,233.933 19.200 C 233.677 19.200,233.582 19.316,233.724 19.457 C 233.865 19.598,234.255 19.486,234.590 19.208 C 235.086 18.797,235.201 18.805,235.203 19.251 C 235.205 19.553,235.655 20.008,236.203 20.262 C 236.751 20.517,237.200 20.575,237.200 20.392 C 237.200 20.209,237.515 19.976,237.900 19.876 C 238.427 19.738,238.377 19.681,237.700 19.646 C 237.205 19.621,236.800 19.420,236.800 19.200 C 236.800 18.980,236.451 18.800,236.024 18.800 C 235.597 18.800,235.136 18.620,235.000 18.400 C 234.671 17.868,233.600 17.886,233.600 18.424 M190.300 20.357 C 189.915 20.748,189.600 21.288,189.600 21.557 C 189.600 21.827,189.417 21.934,189.193 21.796 C 188.970 21.658,188.872 21.407,188.976 21.239 C 189.080 21.071,188.913 20.933,188.605 20.933 C 188.297 20.933,188.056 21.038,188.070 21.167 C 188.083 21.295,188.060 21.490,188.017 21.600 C 187.574 22.735,187.681 23.358,188.199 22.660 C 188.500 22.253,188.951 22.046,189.200 22.200 C 189.469 22.366,189.745 22.134,189.876 21.632 C 190.051 20.963,190.215 20.880,190.649 21.241 C 191.051 21.575,191.200 21.577,191.200 21.249 C 191.200 21.002,191.560 20.800,192.000 20.800 C 192.440 20.800,192.800 20.637,192.800 20.437 C 192.800 20.238,192.412 20.176,191.937 20.300 C 191.346 20.455,191.165 20.380,191.361 20.063 C 191.796 19.360,191.091 19.555,190.300 20.357 M238.690 20.931 C 238.513 21.461,240.147 22.400,241.246 22.400 C 241.661 22.400,241.955 22.603,241.900 22.850 C 241.845 23.098,242.070 23.381,242.400 23.480 C 242.819 23.606,242.855 23.558,242.521 23.320 C 242.223 23.108,242.174 22.766,242.390 22.416 C 242.639 22.013,242.433 21.689,241.669 21.277 C 240.266 20.522,238.880 20.361,238.690 20.931 M186.350 22.200 C 186.322 22.310,186.255 22.580,186.200 22.800 C 186.145 23.020,186.078 23.386,186.050 23.614 C 186.017 23.889,185.715 23.876,185.152 23.574 C 184.556 23.255,184.384 23.251,184.575 23.560 C 184.725 23.802,184.695 24.000,184.509 24.000 C 184.323 24.000,184.144 24.350,184.112 24.777 C 184.073 25.284,184.244 25.481,184.601 25.344 C 184.910 25.226,185.044 24.858,184.907 24.501 C 184.746 24.083,184.822 23.967,185.131 24.158 C 185.388 24.316,185.972 24.185,186.429 23.865 C 186.958 23.494,187.101 23.186,186.823 23.014 C 186.583 22.866,186.491 22.577,186.617 22.372 C 186.744 22.168,186.747 22.000,186.624 22.000 C 186.501 22.000,186.378 22.090,186.350 22.200 M243.102 22.666 C 243.379 22.777,243.503 23.033,243.379 23.234 C 243.255 23.435,243.343 23.600,243.576 23.600 C 243.809 23.600,244.000 23.330,244.000 23.000 C 244.000 22.670,243.685 22.414,243.300 22.432 C 242.878 22.451,242.799 22.544,243.102 22.666 M244.800 23.538 C 244.800 23.792,244.395 24.001,243.900 24.002 C 243.074 24.005,243.093 24.054,244.140 24.600 C 245.707 25.417,246.764 24.853,245.615 23.814 C 245.158 23.400,244.800 23.279,244.800 23.538 M181.280 25.896 C 181.792 26.513,180.547 27.700,179.700 27.401 C 179.406 27.298,179.200 27.560,179.200 28.036 C 179.200 28.482,179.020 28.736,178.800 28.600 C 178.580 28.464,178.400 28.543,178.400 28.776 C 178.400 29.416,179.193 29.284,179.455 28.600 C 179.582 28.270,179.936 28.000,180.243 28.000 C 180.549 28.000,180.800 27.859,180.800 27.686 C 180.800 27.514,181.340 27.054,182.000 26.664 C 183.527 25.762,183.536 25.162,182.020 25.277 C 181.092 25.348,180.934 25.480,181.280 25.896 M248.907 26.840 C 248.876 27.249,249.047 27.706,249.287 27.854 C 249.538 28.009,249.610 27.940,249.457 27.692 C 249.310 27.455,249.468 27.202,249.809 27.130 C 250.327 27.021,250.309 26.927,249.695 26.548 C 249.089 26.173,248.953 26.223,248.907 26.840 M177.499 28.300 C 176.947 28.919,176.943 29.063,177.470 29.547 C 177.982 30.016,178.049 29.987,177.943 29.347 C 177.875 28.936,177.961 28.375,178.134 28.100 C 178.590 27.373,178.224 27.488,177.499 28.300 M251.600 28.600 C 251.600 28.930,251.285 29.203,250.900 29.206 C 250.302 29.211,250.287 29.269,250.800 29.600 C 251.130 29.813,251.670 29.976,252.000 29.962 C 252.342 29.948,252.403 29.856,252.142 29.749 C 251.891 29.646,251.777 29.210,251.889 28.781 C 252.001 28.351,251.982 28.000,251.847 28.000 C 251.711 28.000,251.600 28.270,251.600 28.600 M176.000 29.973 C 176.000 30.178,175.649 30.457,175.220 30.594 C 174.745 30.744,174.528 31.069,174.665 31.425 C 174.828 31.850,174.699 31.936,174.190 31.741 C 173.711 31.557,173.546 31.639,173.667 32.001 C 173.909 32.726,175.200 32.864,175.200 32.165 C 175.200 31.854,175.489 31.600,175.843 31.600 C 176.244 31.600,176.401 31.379,176.260 31.013 C 176.136 30.690,176.192 30.329,176.383 30.210 C 176.575 30.092,176.823 30.221,176.934 30.498 C 177.056 30.801,177.149 30.722,177.168 30.300 C 177.186 29.915,176.930 29.600,176.600 29.600 C 176.270 29.600,176.000 29.768,176.000 29.973 M253.585 30.372 C 253.829 30.827,254.292 31.200,254.614 31.200 C 255.443 31.200,255.348 30.989,254.171 30.218 C 253.165 29.559,253.152 29.562,253.585 30.372 M255.042 32.068 C 255.239 32.387,255.109 32.451,254.631 32.267 C 254.173 32.091,254.322 32.413,255.064 33.199 C 256.200 34.403,256.883 34.864,256.058 33.870 C 255.817 33.579,255.694 32.949,255.786 32.470 C 255.898 31.889,255.755 31.600,255.353 31.600 C 254.997 31.600,254.870 31.790,255.042 32.068 M172.400 33.573 C 172.400 33.778,172.049 34.057,171.620 34.194 C 171.192 34.330,170.743 34.747,170.623 35.120 C 170.503 35.494,169.954 36.323,169.402 36.962 C 168.851 37.601,168.400 38.242,168.400 38.387 C 168.400 38.531,168.033 39.043,167.584 39.525 C 167.136 40.006,166.947 40.400,167.165 40.400 C 167.382 40.400,167.744 40.085,167.968 39.700 C 168.297 39.135,168.378 39.118,168.388 39.611 C 168.395 39.947,168.028 40.541,167.572 40.931 C 167.117 41.321,166.559 42.171,166.333 42.820 C 166.107 43.469,165.753 44.000,165.547 44.000 C 165.331 44.000,165.354 43.660,165.600 43.200 C 166.217 42.046,165.813 42.216,165.005 43.449 C 164.534 44.167,164.488 44.410,164.859 44.220 C 165.156 44.066,165.085 44.199,164.700 44.514 C 163.803 45.249,163.819 45.416,164.792 45.489 C 165.372 45.533,165.858 44.995,166.612 43.475 C 167.178 42.334,168.531 40.558,169.620 39.529 C 170.755 38.457,171.600 37.304,171.600 36.829 C 171.600 36.373,171.774 36.000,171.987 36.000 C 172.201 36.000,172.272 35.731,172.146 35.402 C 172.019 35.074,171.727 34.921,171.496 35.064 C 171.248 35.218,171.196 35.131,171.368 34.851 C 171.529 34.591,171.872 34.405,172.130 34.437 C 173.184 34.567,173.563 34.368,173.345 33.800 C 173.092 33.143,172.400 32.976,172.400 33.573 M256.800 34.909 C 256.800 35.116,257.082 35.177,257.426 35.045 C 257.922 34.855,257.995 34.992,257.776 35.703 C 257.625 36.196,257.637 36.471,257.803 36.314 C 257.969 36.157,258.469 36.223,258.913 36.460 C 259.705 36.884,259.704 36.870,258.880 35.713 C 258.084 34.595,256.800 34.099,256.800 34.909 M259.200 38.219 C 259.200 38.386,260.805 40.098,260.833 39.961 C 261.130 38.527,260.986 38.160,260.127 38.160 C 259.617 38.160,259.200 38.186,259.200 38.219 M262.267 41.067 C 262.120 41.213,262.000 41.586,262.000 41.895 C 262.000 42.361,262.103 42.354,262.600 41.857 C 262.930 41.527,263.200 41.154,263.200 41.029 C 263.200 40.715,262.593 40.740,262.267 41.067 M263.070 43.000 C 263.200 43.660,263.553 44.484,263.854 44.831 C 264.154 45.179,264.413 45.719,264.428 46.031 C 264.444 46.363,264.593 46.266,264.783 45.800 C 264.962 45.360,264.964 44.843,264.786 44.651 C 264.608 44.459,264.558 44.054,264.674 43.751 C 264.799 43.427,264.626 43.200,264.255 43.200 C 263.836 43.200,263.700 42.966,263.850 42.500 C 264.023 41.964,263.984 41.928,263.686 42.345 C 263.357 42.806,263.261 42.806,263.064 42.345 C 262.936 42.045,262.939 42.340,263.070 43.000 M163.200 46.474 C 163.200 46.679,163.403 46.722,163.652 46.568 C 163.911 46.408,164.035 46.496,163.942 46.774 C 163.853 47.041,163.625 47.231,163.435 47.196 C 163.011 47.117,162.414 48.009,162.406 48.733 C 162.403 49.027,162.625 49.184,162.900 49.083 C 163.175 48.983,163.355 48.698,163.300 48.450 C 163.245 48.203,163.425 47.999,163.700 47.997 C 163.975 47.995,164.397 47.568,164.639 47.047 C 165.033 46.195,164.983 46.100,164.139 46.100 C 163.622 46.100,163.200 46.268,163.200 46.474 M265.644 48.355 C 266.160 49.835,266.739 49.994,266.658 48.634 C 266.626 48.102,266.527 47.741,266.437 47.830 C 266.347 47.920,266.034 47.795,265.742 47.552 C 265.305 47.189,265.288 47.332,265.644 48.355 M267.195 49.386 C 267.431 50.008,267.427 50.459,267.185 50.609 C 266.973 50.740,266.800 51.117,266.800 51.447 C 266.800 51.777,266.983 51.934,267.207 51.796 C 267.430 51.658,267.489 51.332,267.338 51.072 C 267.186 50.813,267.484 50.960,268.000 51.400 C 268.516 51.840,268.847 52.020,268.736 51.800 C 268.625 51.580,268.226 50.725,267.848 49.900 C 267.082 48.225,266.613 47.856,267.195 49.386 M161.610 50.482 C 161.158 50.967,160.856 51.552,160.940 51.782 C 161.024 52.012,160.939 52.499,160.751 52.864 C 160.503 53.347,160.573 53.504,161.009 53.440 C 162.145 53.273,162.629 52.459,162.098 51.609 C 161.742 51.038,161.735 50.764,162.070 50.557 C 162.348 50.385,162.413 50.455,162.238 50.738 C 162.081 50.992,162.143 51.200,162.376 51.200 C 162.609 51.200,162.800 51.125,162.800 51.033 C 162.800 50.941,162.909 50.581,163.043 50.233 C 163.396 49.313,162.564 49.458,161.610 50.482 M267.620 53.000 C 267.634 53.668,268.568 54.994,269.100 55.100 C 269.794 55.239,269.727 54.070,269.000 53.343 C 268.538 52.881,268.399 52.864,268.394 53.271 C 268.389 53.662,268.286 53.643,268.000 53.200 C 267.787 52.870,267.616 52.780,267.620 53.000 M161.011 55.183 C 160.881 55.393,160.510 55.464,160.187 55.340 C 159.821 55.199,159.600 55.356,159.600 55.757 C 159.600 56.111,159.825 56.406,160.100 56.413 C 160.425 56.421,160.374 56.598,159.953 56.918 C 159.368 57.363,159.366 57.466,159.929 57.992 C 160.479 58.505,160.521 58.493,160.289 57.887 C 160.144 57.509,160.199 57.200,160.413 57.200 C 160.626 57.200,160.800 56.876,160.800 56.480 C 160.800 56.084,161.016 55.544,161.280 55.280 C 161.544 55.016,161.645 54.800,161.504 54.800 C 161.363 54.800,161.141 54.972,161.011 55.183 M268.626 56.500 C 268.780 56.995,269.063 57.460,269.255 57.534 C 269.448 57.608,269.503 57.833,269.379 58.034 C 269.255 58.235,269.433 58.400,269.776 58.400 C 270.149 58.400,270.400 58.052,270.400 57.533 C 270.400 57.057,270.282 56.785,270.137 56.930 C 269.775 57.292,268.756 56.395,269.028 55.955 C 269.149 55.760,269.044 55.600,268.797 55.600 C 268.513 55.600,268.450 55.934,268.626 56.500 M159.169 58.100 C 158.960 58.784,158.913 59.621,159.093 59.440 C 159.221 59.312,159.572 59.411,159.872 59.660 C 160.304 60.018,160.365 59.975,160.166 59.457 C 160.028 59.095,159.743 58.800,159.534 58.800 C 159.324 58.800,159.264 58.620,159.400 58.400 C 159.536 58.180,159.547 58.000,159.424 58.000 C 159.301 58.000,159.186 58.045,159.169 58.100 M269.448 59.900 C 269.592 60.505,269.861 61.193,270.046 61.430 C 270.236 61.673,270.177 62.063,269.910 62.330 C 269.550 62.690,269.552 62.800,269.920 62.800 C 270.184 62.800,270.535 62.845,270.700 62.900 C 270.865 62.955,271.029 62.415,271.065 61.700 C 271.101 60.985,270.955 60.400,270.742 60.400 C 270.528 60.400,270.464 60.580,270.600 60.800 C 270.736 61.020,270.657 61.200,270.424 61.200 C 269.715 61.200,269.951 60.071,270.700 59.876 C 271.367 59.702,271.367 59.691,270.700 59.646 C 270.315 59.621,270.000 59.420,270.000 59.200 C 270.000 58.980,269.817 58.800,269.592 58.800 C 269.351 58.800,269.292 59.248,269.448 59.900 M158.518 60.606 C 158.140 61.015,158.149 61.171,158.556 61.328 C 159.113 61.542,159.151 63.800,158.605 64.303 C 158.427 64.466,158.382 64.195,158.503 63.700 C 158.625 63.206,158.581 62.712,158.404 62.603 C 158.228 62.494,158.016 63.108,157.934 63.969 C 157.851 64.848,157.945 65.434,158.151 65.307 C 158.354 65.181,158.425 65.556,158.312 66.150 C 158.199 66.738,158.240 67.301,158.402 67.401 C 158.563 67.501,158.686 67.002,158.674 66.291 C 158.663 65.581,158.866 64.607,159.126 64.126 C 159.749 62.978,159.733 61.202,159.100 61.194 C 158.732 61.189,158.743 61.097,159.143 60.844 C 159.441 60.655,159.531 60.406,159.343 60.292 C 159.154 60.178,158.783 60.319,158.518 60.606 M270.470 65.554 C 270.434 66.489,270.640 67.301,270.989 67.590 C 271.472 67.992,271.532 67.917,271.352 67.136 C 271.234 66.621,271.075 65.779,271.000 65.265 C 270.778 63.750,270.536 63.882,270.470 65.554 M158.350 69.800 C 158.322 69.910,158.278 70.165,158.250 70.367 C 158.222 70.568,158.065 70.868,157.900 71.033 C 157.456 71.477,157.536 72.087,158.000 71.800 C 158.220 71.664,158.400 71.844,158.400 72.200 C 158.400 72.556,158.220 72.736,158.000 72.600 C 157.433 72.250,157.503 72.936,158.100 73.579 C 158.500 74.010,158.500 74.061,158.100 73.835 C 157.407 73.444,157.473 73.797,158.206 74.405 C 158.738 74.846,158.805 74.583,158.754 72.254 C 158.705 69.993,158.545 69.020,158.350 69.800 M271.320 73.600 C 271.320 74.810,271.395 75.305,271.487 74.700 C 271.578 74.095,271.578 73.105,271.487 72.500 C 271.395 71.895,271.320 72.390,271.320 73.600 M157.714 77.342 C 157.932 77.995,158.800 78.122,158.800 77.500 C 158.800 77.188,158.525 76.933,158.189 76.933 C 157.853 76.933,157.639 77.117,157.714 77.342 M270.464 79.073 C 270.444 80.069,270.312 81.247,270.171 81.692 C 270.000 82.230,270.063 82.409,270.357 82.226 C 270.601 82.076,270.800 82.143,270.800 82.376 C 270.800 82.609,270.530 82.800,270.200 82.800 C 269.811 82.800,269.582 83.222,269.550 84.000 C 269.480 85.690,269.438 85.895,269.100 86.233 C 268.935 86.398,268.815 86.908,268.832 87.367 C 268.886 88.744,269.961 86.043,269.982 84.476 C 269.993 83.633,270.157 83.250,270.432 83.420 C 270.683 83.575,270.753 84.131,270.600 84.743 C 270.454 85.323,270.468 85.665,270.630 85.503 C 271.143 84.990,271.514 81.600,271.057 81.600 C 270.803 81.600,270.828 81.412,271.120 81.120 C 271.384 80.856,271.587 80.361,271.572 80.020 C 271.552 79.581,271.444 79.633,271.200 80.200 C 270.700 81.364,270.679 79.970,271.177 78.660 C 271.454 77.931,271.415 77.614,271.027 77.466 C 270.642 77.318,270.490 77.750,270.464 79.073 M158.000 82.600 C 158.000 82.930,158.270 83.200,158.600 83.200 C 158.930 83.200,159.200 83.470,159.200 83.800 C 159.200 84.130,159.399 84.400,159.643 84.400 C 159.886 84.400,159.976 84.115,159.843 83.767 C 159.709 83.419,159.586 82.834,159.568 82.467 C 159.549 82.052,159.461 81.988,159.335 82.300 C 159.224 82.575,158.958 82.800,158.743 82.800 C 158.528 82.800,158.464 82.620,158.600 82.400 C 158.736 82.180,158.657 82.000,158.424 82.000 C 158.191 82.000,158.000 82.270,158.000 82.600 M158.907 85.645 C 158.872 86.110,158.884 86.425,158.935 86.345 C 158.985 86.265,159.267 85.885,159.562 85.500 C 160.013 84.911,160.009 84.800,159.534 84.800 C 159.224 84.800,158.942 85.180,158.907 85.645 M268.400 88.951 C 268.400 89.254,268.656 89.714,268.968 89.973 C 269.426 90.354,269.509 90.305,269.398 89.722 C 269.323 89.325,269.247 88.865,269.231 88.700 C 269.175 88.155,268.400 88.389,268.400 88.951 M267.755 90.573 C 267.592 90.999,267.706 91.420,268.042 91.630 C 268.733 92.062,269.081 90.921,268.451 90.291 C 268.151 89.991,267.946 90.075,267.755 90.573 M266.893 93.105 C 266.626 93.872,266.647 94.341,266.962 94.636 C 267.297 94.948,267.428 94.655,267.457 93.530 C 267.505 91.709,267.406 91.634,266.893 93.105 M161.200 93.295 C 161.200 93.972,161.267 93.990,161.800 93.457 C 162.130 93.127,162.400 92.784,162.400 92.695 C 162.400 92.606,162.130 92.533,161.800 92.533 C 161.470 92.533,161.200 92.876,161.200 93.295 M163.200 95.224 C 163.200 95.457,163.020 95.536,162.800 95.400 C 162.580 95.264,162.400 95.343,162.400 95.576 C 162.400 95.809,162.670 96.000,163.000 96.000 C 163.330 96.000,163.600 95.730,163.600 95.400 C 163.600 95.070,163.510 94.800,163.400 94.800 C 163.290 94.800,163.200 94.991,163.200 95.224 M266.200 95.200 C 266.336 95.420,266.236 95.600,265.977 95.600 C 265.698 95.600,265.595 95.938,265.724 96.432 C 265.883 97.039,265.788 97.204,265.371 97.044 C 265.057 96.924,264.800 96.999,264.800 97.213 C 264.800 97.769,265.834 97.690,266.280 97.100 C 266.795 96.420,266.845 94.800,266.352 94.800 C 266.132 94.800,266.064 94.980,266.200 95.200 M163.470 97.252 C 163.344 97.735,163.497 98.355,163.824 98.681 C 164.141 98.998,164.400 99.100,164.400 98.909 C 164.400 98.717,164.204 98.364,163.965 98.125 C 163.652 97.812,163.652 97.615,163.965 97.422 C 164.487 97.099,164.543 96.400,164.047 96.400 C 163.852 96.400,163.593 96.784,163.470 97.252 M263.649 99.452 C 263.386 100.030,263.250 100.584,263.349 100.682 C 263.447 100.780,263.646 100.487,263.790 100.030 C 263.935 99.574,264.322 99.200,264.651 99.200 C 264.979 99.200,265.136 99.020,265.000 98.800 C 264.589 98.135,264.154 98.345,263.649 99.452 M165.753 101.659 C 165.804 101.922,166.237 102.166,166.716 102.201 C 167.413 102.253,167.495 102.155,167.128 101.714 C 166.792 101.308,166.595 101.285,166.384 101.626 C 166.171 101.971,166.041 101.973,165.878 101.635 C 165.726 101.319,165.688 101.326,165.753 101.659 M262.522 101.965 C 262.693 103.085,263.020 103.330,263.091 102.391 C 263.123 101.964,262.980 101.511,262.773 101.384 C 262.567 101.256,262.453 101.518,262.522 101.965 M166.800 103.200 C 167.576 103.701,168.000 103.701,168.000 103.200 C 168.000 102.980,167.595 102.803,167.100 102.806 C 166.372 102.811,166.315 102.886,166.800 103.200 M260.496 104.605 C 259.815 105.657,259.733 106.000,260.163 106.000 C 260.477 106.000,260.796 106.187,260.872 106.415 C 260.948 106.643,261.349 106.256,261.763 105.556 C 262.202 104.812,262.298 104.416,261.995 104.603 C 261.609 104.842,261.532 104.702,261.700 104.063 C 262.032 102.791,261.523 103.021,260.496 104.605 M167.597 104.011 C 167.162 104.285,167.142 104.389,167.524 104.394 C 167.812 104.397,167.936 104.580,167.800 104.800 C 167.664 105.020,167.733 105.200,167.953 105.200 C 168.547 105.200,168.942 104.382,168.542 103.982 C 168.344 103.784,167.936 103.796,167.597 104.011 M169.100 105.465 C 169.375 105.576,169.600 105.922,169.600 106.233 C 169.600 106.545,169.810 106.800,170.067 106.800 C 170.323 106.800,170.399 106.935,170.234 107.099 C 170.069 107.264,169.679 107.050,169.367 106.623 C 168.806 105.856,168.800 105.856,168.800 106.627 C 168.800 107.429,170.122 108.545,170.557 108.110 C 171.213 107.453,169.980 105.157,169.011 105.232 C 168.785 105.249,168.825 105.354,169.100 105.465 M258.261 107.532 C 257.503 108.370,257.760 108.818,258.967 108.760 C 259.696 108.725,259.675 108.680,258.800 108.400 C 258.250 108.224,258.006 108.062,258.257 108.040 C 258.509 108.018,258.818 107.730,258.945 107.400 C 259.249 106.608,259.066 106.643,258.261 107.532 M171.178 109.266 C 170.700 109.604,170.716 109.639,171.268 109.463 C 171.635 109.346,172.310 109.575,172.768 109.972 C 173.658 110.744,173.873 111.600,173.176 111.600 C 172.943 111.600,172.866 111.783,173.004 112.007 C 173.142 112.230,173.451 112.292,173.689 112.145 C 173.939 111.991,174.009 112.061,173.855 112.311 C 173.464 112.944,174.342 113.346,174.973 112.823 C 176.017 111.956,172.299 108.472,171.178 109.266 M254.252 112.066 C 253.400 112.910,252.892 113.600,253.123 113.600 C 253.354 113.600,253.842 113.301,254.208 112.935 C 254.718 112.425,254.944 112.386,255.181 112.769 C 255.396 113.117,255.558 113.004,255.718 112.394 C 255.872 111.802,256.117 111.622,256.473 111.837 C 256.849 112.062,256.831 111.930,256.413 111.377 C 256.090 110.950,255.820 110.585,255.813 110.566 C 255.806 110.547,255.103 111.222,254.252 112.066 M175.445 113.428 C 175.291 113.827,175.371 113.942,175.673 113.755 C 175.980 113.565,176.052 113.688,175.885 114.122 C 175.748 114.481,175.788 114.869,175.976 114.985 C 176.163 115.101,176.418 114.929,176.543 114.604 C 176.680 114.248,177.054 114.105,177.485 114.244 C 178.091 114.440,178.108 114.407,177.600 114.024 C 176.154 112.937,175.683 112.807,175.445 113.428 M177.990 115.063 C 178.216 115.175,178.400 115.442,178.400 115.657 C 178.400 115.872,178.175 115.912,177.900 115.747 C 177.556 115.540,177.570 115.656,177.945 116.119 C 178.245 116.489,178.650 116.693,178.845 116.572 C 179.040 116.451,179.214 116.678,179.232 117.076 C 179.250 117.496,179.348 117.590,179.465 117.300 C 179.787 116.501,180.369 116.723,180.204 117.581 C 180.106 118.087,180.326 118.450,180.827 118.608 C 181.252 118.743,181.600 119.022,181.600 119.227 C 181.600 119.432,182.065 119.600,182.633 119.600 C 183.284 119.600,183.604 119.415,183.496 119.100 C 183.402 118.825,182.939 118.656,182.466 118.725 C 181.896 118.807,181.668 118.672,181.789 118.325 C 181.947 117.871,178.804 115.128,177.899 114.930 C 177.724 114.892,177.764 114.951,177.990 115.063 M249.680 116.080 C 249.416 116.344,249.200 116.867,249.200 117.243 C 249.200 117.728,248.969 117.865,248.400 117.716 C 247.855 117.573,247.600 117.704,247.600 118.124 C 247.600 118.464,247.285 118.824,246.900 118.924 C 246.244 119.096,246.245 119.110,246.913 119.154 C 247.304 119.179,247.731 118.925,247.860 118.588 C 248.008 118.202,248.372 118.064,248.847 118.215 C 249.451 118.407,249.600 118.250,249.600 117.427 C 249.600 116.862,249.803 116.445,250.050 116.500 C 250.298 116.555,250.582 116.375,250.683 116.100 C 250.917 115.464,250.308 115.452,249.680 116.080 M183.424 119.813 C 182.718 120.347,182.711 120.400,183.352 120.400 C 183.740 120.400,184.319 120.662,184.640 120.983 C 184.961 121.304,185.506 121.457,185.852 121.325 C 186.198 121.192,186.602 121.280,186.751 121.521 C 186.925 121.803,187.230 121.826,187.611 121.585 C 188.101 121.275,188.079 121.211,187.476 121.206 C 187.078 121.203,186.854 121.036,186.978 120.835 C 187.102 120.634,186.888 120.517,186.502 120.574 C 186.116 120.631,185.560 120.390,185.267 120.039 C 184.791 119.467,184.760 119.480,184.977 120.157 C 185.180 120.795,185.124 120.835,184.614 120.411 C 184.281 120.135,184.107 119.750,184.228 119.555 C 184.532 119.063,184.329 119.128,183.424 119.813 M242.654 121.004 C 242.527 121.336,242.282 121.577,242.111 121.539 C 241.219 121.343,239.445 122.458,240.014 122.858 C 240.475 123.182,240.415 123.229,239.730 123.080 C 239.053 122.933,238.914 123.036,239.105 123.545 C 239.316 124.109,239.258 124.125,238.688 123.662 C 238.325 123.366,237.796 123.217,237.513 123.331 C 237.220 123.448,237.343 123.556,237.800 123.583 C 238.524 123.624,238.505 123.686,237.600 124.231 C 236.834 124.692,236.787 124.787,237.400 124.636 C 237.840 124.527,238.695 124.320,239.300 124.176 C 240.296 123.938,240.584 123.567,240.447 122.700 C 240.421 122.535,240.681 122.400,241.024 122.400 C 241.367 122.400,241.536 122.580,241.400 122.800 C 241.264 123.020,241.356 123.200,241.603 123.200 C 241.870 123.200,241.963 122.833,241.831 122.300 C 241.708 121.805,241.711 121.625,241.837 121.900 C 241.963 122.175,242.332 122.400,242.657 122.400 C 242.982 122.400,243.136 122.220,243.000 122.000 C 242.864 121.780,243.028 121.600,243.364 121.600 C 243.743 121.600,243.887 121.372,243.745 121.000 C 243.449 120.230,242.950 120.232,242.654 121.004 M188.400 122.443 C 188.400 122.686,188.121 122.778,187.779 122.647 C 187.401 122.502,187.261 122.575,187.420 122.832 C 187.563 123.064,187.921 123.162,188.215 123.049 C 188.509 122.937,188.830 123.149,188.929 123.522 C 189.091 124.140,189.111 124.138,189.154 123.500 C 189.179 123.115,189.425 122.797,189.700 122.794 C 190.033 122.790,190.000 122.658,189.600 122.400 C 188.806 121.887,188.400 121.901,188.400 122.443 M190.057 123.556 C 189.679 123.796,189.649 123.983,189.957 124.174 C 190.201 124.324,190.400 124.257,190.400 124.024 C 190.400 123.264,191.501 123.579,191.716 124.400 C 191.837 124.862,192.237 125.180,192.663 125.154 C 193.332 125.111,193.336 125.090,192.700 124.924 C 192.315 124.824,192.000 124.395,192.000 123.971 C 192.000 123.156,191.019 122.946,190.057 123.556 M192.800 124.294 C 193.130 124.421,193.688 124.854,194.041 125.255 C 194.393 125.657,194.772 125.894,194.884 125.783 C 194.995 125.672,195.305 125.844,195.572 126.167 C 195.840 126.489,196.322 126.651,196.644 126.528 C 196.966 126.404,197.538 126.571,197.915 126.898 C 198.911 127.763,200.800 128.149,200.800 127.488 C 200.800 126.435,199.911 125.976,199.301 126.714 C 198.771 127.356,198.750 127.353,198.968 126.667 C 199.120 126.185,199.028 125.991,198.700 126.102 C 198.425 126.194,197.986 125.984,197.724 125.635 C 197.328 125.106,197.111 125.084,196.423 125.504 C 195.855 125.851,195.629 125.868,195.699 125.557 C 195.754 125.309,195.461 125.050,195.048 124.981 C 194.634 124.912,194.103 124.663,193.868 124.428 C 193.632 124.192,193.161 124.014,192.820 124.032 C 192.281 124.059,192.279 124.093,192.800 124.294 M233.199 125.486 C 232.374 126.064,232.358 126.145,232.999 126.503 C 233.446 126.754,233.785 126.755,233.948 126.507 C 234.086 126.294,234.407 126.048,234.661 125.960 C 234.994 125.844,234.980 125.670,234.608 125.329 C 234.212 124.965,233.891 125.001,233.199 125.486 M231.746 125.798 C 231.619 126.126,231.392 126.319,231.241 126.225 C 231.090 126.132,230.939 126.415,230.906 126.853 C 230.820 127.999,231.703 127.549,232.044 126.274 C 232.348 125.135,232.132 124.790,231.746 125.798 M230.000 126.255 C 230.000 126.469,229.240 126.688,228.312 126.743 C 226.355 126.859,225.713 127.197,227.433 127.206 C 228.334 127.211,228.463 127.301,228.000 127.600 C 227.515 127.914,227.572 127.989,228.300 127.994 C 228.795 127.997,229.200 127.809,229.200 127.576 C 229.200 127.343,229.361 127.252,229.558 127.374 C 229.949 127.615,230.550 126.417,230.209 126.076 C 230.094 125.961,230.000 126.041,230.000 126.255 M201.200 127.176 C 201.200 127.383,201.408 127.681,201.662 127.838 C 201.971 128.029,202.018 127.938,201.803 127.562 C 201.544 127.107,201.586 127.096,202.021 127.500 C 202.318 127.775,203.118 128.000,203.800 128.000 C 204.482 128.000,205.282 128.225,205.579 128.500 C 206.010 128.900,206.061 128.900,205.835 128.500 C 205.662 128.193,205.794 128.000,206.176 128.000 C 206.519 128.000,206.800 128.203,206.800 128.450 C 206.800 128.741,207.242 128.812,208.049 128.650 C 209.178 128.424,209.245 128.464,208.749 129.065 C 208.246 129.673,208.276 129.681,209.112 129.164 C 209.699 128.801,210.127 128.743,210.312 129.000 C 210.683 129.515,216.515 129.473,218.600 128.941 C 219.480 128.716,220.605 128.562,221.100 128.599 C 221.634 128.639,222.000 128.440,222.000 128.110 C 222.000 127.803,221.856 127.642,221.679 127.751 C 220.671 128.374,211.282 128.797,210.504 128.254 C 210.231 128.064,209.466 127.988,208.804 128.085 C 208.142 128.182,207.600 128.146,207.600 128.005 C 207.600 127.865,206.745 127.706,205.700 127.652 C 204.655 127.599,203.629 127.385,203.420 127.178 C 202.927 126.688,201.200 126.687,201.200 127.176 M225.493 127.440 C 225.361 127.572,224.611 127.680,223.827 127.680 C 222.870 127.680,222.400 127.865,222.400 128.240 C 222.400 128.548,222.580 128.800,222.800 128.800 C 223.020 128.800,223.200 128.614,223.200 128.386 C 223.200 128.113,223.489 128.127,224.048 128.426 C 224.718 128.784,224.830 128.773,224.583 128.372 C 224.361 128.014,224.462 127.938,224.922 128.115 C 225.281 128.252,225.688 128.181,225.827 127.956 C 226.117 127.487,225.854 127.080,225.493 127.440 M150.627 313.161 C 150.818 313.351,148.875 314.400,148.331 314.400 C 148.123 314.400,148.064 314.220,148.200 314.000 C 148.336 313.780,148.257 313.600,148.024 313.600 C 147.791 313.600,147.600 313.870,147.600 314.200 C 147.600 314.955,148.391 314.965,149.811 314.228 C 150.525 313.858,151.670 313.717,153.057 313.829 C 154.409 313.938,155.200 313.845,155.200 313.577 C 155.200 313.344,155.335 313.231,155.500 313.326 C 155.665 313.422,156.160 313.355,156.600 313.178 C 157.260 312.913,157.176 312.851,156.124 312.828 C 155.422 312.813,154.736 312.980,154.600 313.200 C 154.464 313.420,154.138 313.597,153.876 313.594 C 153.592 313.590,153.641 313.434,154.000 313.207 C 154.417 312.942,153.970 312.852,152.533 312.913 C 151.397 312.961,150.539 313.072,150.627 313.161 M156.958 313.887 C 157.567 314.043,157.606 314.150,157.158 314.434 C 156.840 314.635,156.794 314.790,157.051 314.794 C 157.299 314.797,157.726 314.530,158.000 314.200 C 158.424 313.689,158.327 313.607,157.349 313.646 C 156.566 313.678,156.442 313.755,156.958 313.887 M146.353 314.500 C 146.327 314.775,146.327 315.135,146.353 315.300 C 146.379 315.465,145.860 315.600,145.200 315.600 C 143.996 315.600,143.616 316.115,144.443 316.626 C 144.751 316.817,144.721 317.004,144.343 317.244 C 143.904 317.522,143.901 317.589,144.329 317.594 C 144.910 317.601,146.258 316.420,145.729 316.368 C 145.548 316.350,145.940 316.088,146.600 315.786 C 147.260 315.483,147.581 315.228,147.313 315.218 C 147.044 315.208,146.929 314.930,147.055 314.600 C 147.182 314.270,147.086 314.000,146.843 314.000 C 146.599 314.000,146.379 314.225,146.353 314.500 M159.592 314.264 C 159.819 314.376,159.898 314.642,159.767 314.854 C 159.618 315.094,159.330 315.074,159.000 314.800 C 158.634 314.496,158.391 314.490,158.212 314.781 C 158.069 315.011,158.177 315.200,158.451 315.200 C 158.724 315.200,159.405 315.605,159.962 316.100 C 160.520 316.595,160.745 316.698,160.464 316.330 C 160.182 315.961,160.007 315.350,160.076 314.971 C 160.144 314.593,159.971 314.233,159.690 314.171 C 159.410 314.110,159.366 314.152,159.592 314.264 M161.600 316.200 C 161.874 316.530,162.250 316.800,162.436 316.800 C 162.623 316.800,162.671 316.530,162.545 316.200 C 162.418 315.870,162.042 315.600,161.708 315.600 C 161.215 315.600,161.195 315.712,161.600 316.200 M162.274 318.648 C 162.453 319.115,162.606 319.127,163.104 318.713 C 163.628 318.279,163.676 318.329,163.441 319.069 C 163.291 319.544,163.334 320.036,163.538 320.162 C 163.906 320.389,164.526 318.792,164.197 318.464 C 163.695 317.962,162.070 318.117,162.274 318.648 M141.638 319.400 C 141.579 320.322,142.349 321.011,142.863 320.497 C 143.259 320.101,143.250 319.898,142.821 319.500 C 142.390 319.100,142.339 319.100,142.565 319.500 C 142.720 319.775,142.672 320.000,142.457 320.000 C 142.242 320.000,141.976 319.775,141.865 319.500 C 141.754 319.225,141.652 319.180,141.638 319.400 M164.481 324.025 C 164.530 324.671,164.731 325.200,164.928 325.200 C 165.125 325.200,165.186 324.939,165.063 324.620 C 164.915 324.233,165.033 324.115,165.420 324.263 C 165.801 324.409,166.000 324.225,166.000 323.728 C 166.000 323.256,165.697 322.947,165.196 322.910 C 164.540 322.860,164.408 323.067,164.481 324.025 M141.194 324.500 C 141.189 325.167,141.097 325.257,140.839 324.850 C 140.612 324.491,140.510 324.859,140.545 325.912 C 140.575 326.798,140.720 327.449,140.866 327.359 C 141.012 327.269,141.198 327.393,141.278 327.635 C 141.359 327.877,141.467 327.068,141.519 325.838 C 141.570 324.607,141.520 323.600,141.406 323.600 C 141.293 323.600,141.197 324.005,141.194 324.500 M164.400 326.501 C 164.400 326.849,164.290 327.421,164.155 327.772 C 163.977 328.236,164.084 328.343,164.547 328.165 C 164.897 328.031,165.131 327.583,165.068 327.171 C 164.920 326.198,164.400 325.676,164.400 326.501 M142.000 328.424 C 142.000 328.877,141.820 329.136,141.600 329.000 C 141.380 328.864,141.200 328.943,141.200 329.176 C 141.200 329.409,141.535 329.600,141.945 329.600 C 142.523 329.600,142.646 329.377,142.498 328.600 C 142.266 327.389,142.000 327.294,142.000 328.424 M164.350 328.920 C 164.322 329.074,164.269 329.425,164.232 329.700 C 164.194 329.975,163.916 330.145,163.614 330.077 C 163.156 329.975,163.152 330.061,163.595 330.594 C 164.012 331.097,164.022 331.338,163.639 331.717 C 163.258 332.095,163.210 332.048,163.419 331.500 C 163.818 330.453,162.986 330.656,162.246 331.786 C 161.477 332.960,161.440 333.234,162.072 333.100 C 162.958 332.912,164.423 331.437,164.228 330.929 C 164.121 330.650,164.341 330.248,164.717 330.035 C 165.264 329.727,165.300 329.549,164.900 329.145 C 164.625 328.867,164.378 328.766,164.350 328.920 M142.393 331.900 C 143.370 333.374,143.467 333.437,143.467 332.600 C 143.467 332.270,143.384 332.082,143.284 332.183 C 143.183 332.284,142.747 331.969,142.316 331.483 C 141.667 330.754,141.681 330.827,142.393 331.900 M160.092 334.000 C 159.620 334.440,159.016 334.800,158.750 334.800 C 158.484 334.800,158.365 334.899,158.486 335.019 C 158.941 335.475,160.733 334.701,160.925 333.966 C 161.173 333.016,161.147 333.017,160.092 334.000 M144.808 334.416 C 145.282 335.300,146.400 336.197,146.400 335.692 C 146.400 335.468,146.130 335.182,145.800 335.055 C 145.470 334.929,145.200 334.603,145.200 334.333 C 145.200 333.949,145.307 333.947,145.680 334.320 C 146.359 334.999,146.997 334.919,146.422 334.227 C 145.738 333.403,144.353 333.565,144.808 334.416 M147.600 335.500 C 147.600 336.391,148.205 337.039,148.537 336.502 C 148.643 336.331,148.475 335.844,148.165 335.419 C 147.614 334.666,147.600 334.668,147.600 335.500 M157.178 335.978 C 157.553 336.215,156.759 336.318,154.912 336.272 C 152.648 336.215,152.154 336.304,152.490 336.709 C 152.808 337.092,152.760 337.160,152.297 336.982 C 151.958 336.852,151.576 336.915,151.448 337.123 C 151.074 337.728,153.294 337.557,154.290 336.904 C 155.124 336.358,155.201 336.370,155.206 337.054 C 155.210 337.469,155.343 337.622,155.506 337.400 C 155.668 337.180,156.025 336.982,156.300 336.960 C 158.614 336.775,158.938 336.712,158.498 336.534 C 158.221 336.423,158.097 336.167,158.221 335.966 C 158.345 335.765,158.032 335.603,157.524 335.606 C 156.810 335.611,156.731 335.695,157.178 335.978 M149.428 336.355 C 149.054 336.959,150.743 337.150,151.234 336.559 C 151.611 336.105,151.505 336.000,150.673 336.000 C 150.109 336.000,149.549 336.160,149.428 336.355 " stroke="none" fill="#f48cb4" fill-rule="evenodd"></path><path id="path4" d="M133.444 167.400 C 133.773 168.871,134.002 169.190,133.994 168.167 C 133.991 167.745,133.805 167.130,133.582 166.800 C 133.285 166.362,133.248 166.524,133.444 167.400 M78.520 170.400 C 78.520 171.610,78.595 172.105,78.687 171.500 C 78.778 170.895,78.778 169.905,78.687 169.300 C 78.595 168.695,78.520 169.190,78.520 170.400 M101.300 197.076 C 101.685 197.176,102.315 197.176,102.700 197.076 C 103.085 196.975,102.770 196.893,102.000 196.893 C 101.230 196.893,100.915 196.975,101.300 197.076 M146.257 211.400 C 145.927 211.730,145.464 212.000,145.229 212.000 C 144.993 212.000,144.800 212.571,144.800 213.270 L 144.800 214.539 145.800 213.600 C 146.350 213.083,146.800 212.321,146.800 211.907 C 146.800 211.492,146.980 211.264,147.200 211.400 C 147.420 211.536,147.600 211.457,147.600 211.224 C 147.600 210.617,146.956 210.701,146.257 211.400 " stroke="none" fill="#1c94b4" fill-rule="evenodd"></path></g></svg>